<svg version="1.1" viewBox="0.0 0.0 781.2782152230972 351.249343832021" fill="none" stroke="none" stroke-linecap="square" stroke-miterlimit="10" xmlns:xlink="http://www.w3.org/1999/xlink" xmlns="http://www.w3.org/2000/svg"><clipPath id="p.0"><path d="m0 0l781.2782 0l0 351.24933l-781.2782 0l0 -351.24933z" clip-rule="nonzero"/></clipPath><g clip-path="url(#p.0)"><path fill="#000000" fill-opacity="0.0" d="m0 0l781.2782 0l0 351.24933l-781.2782 0z" fill-rule="evenodd"/><path fill="#cfe2f3" d="m329.79004 20.601269l0 0c0 -6.0332155 4.890869 -10.924104 10.924103 -10.924104l200.60849 0c2.8972168 0 5.6758423 1.1509295 7.7244873 3.1995964c2.048645 2.048666 3.199585 4.8272543 3.199585 7.7245073l0 43.695103c0 6.0332108 -4.890869 10.924103 -10.924072 10.924103l-200.60849 0c-6.0332336 0 -10.924103 -4.890892 -10.924103 -10.924103z" fill-rule="evenodd"/><path stroke="#000000" stroke-width="1.0" stroke-linejoin="round" stroke-linecap="butt" d="m329.79004 20.601269l0 0c0 -6.0332155 4.890869 -10.924104 10.924103 -10.924104l200.60849 0c2.8972168 0 5.6758423 1.1509295 7.7244873 3.1995964c2.048645 2.048666 3.199585 4.8272543 3.199585 7.7245073l0 43.695103c0 6.0332108 -4.890869 10.924103 -10.924072 10.924103l-200.60849 0c-6.0332336 0 -10.924103 -4.890892 -10.924103 -10.924103z" fill-rule="evenodd"/><path fill="#000000" d="m402.0246 49.587566q-1.328125 0 -2.484375 -0.421875q-1.15625 -0.4375 -1.96875 -0.984375l0.703125 -1.015625q0.78125 0.5625 1.734375 0.90625q0.953125 0.328125 2.203125 0.328125q1.15625 0 1.71875 -0.421875q0.578125 -0.4375 0.578125 -1.0q0 -0.265625 -0.109375 -0.484375q-0.09375 -0.21875 -0.390625 -0.421875q-0.28125 -0.203125 -0.84375 -0.390625q-0.5625 -0.1875 -1.5 -0.375q-1.765625 -0.375 -2.65625 -1.0q-0.875 -0.640625 -0.875 -1.65625q0 -1.09375 0.9375 -1.828125q0.953125 -0.75 2.828125 -0.75q1.046875 0 2.015625 0.359375q0.96875 0.34375 1.640625 0.796875l-0.75 1.0q-0.609375 -0.453125 -1.40625 -0.703125q-0.78125 -0.25 -1.640625 -0.25q-0.78125 0 -1.234375 0.171875q-0.453125 0.171875 -0.65625 0.484375q-0.1875 0.296875 -0.1875 0.640625q0 0.578125 0.625 0.90625q0.625 0.328125 2.0 0.609375q1.515625 0.3125 2.328125 0.71875q0.8125 0.390625 1.109375 0.890625q0.3125 0.5 0.3125 1.1875q0 0.75 -0.46875 1.359375q-0.46875 0.609375 -1.359375 0.984375q-0.890625 0.359375 -2.203125 0.359375zm11.303131 -0.21875l0 -7.8125l-4.21875 0l0 -1.25l5.75 0l0 9.0625l-1.53125 0zm0.59375 -10.96875q-0.515625 0 -0.875 -0.328125q-0.359375 -0.328125 -0.359375 -0.859375q0 -0.546875 0.359375 -0.875q0.359375 -0.328125 0.875 -0.328125q0.53125 0 0.875 0.328125q0.359375 0.328125 0.359375 0.875q0 0.53125 -0.359375 0.859375q-0.34375 0.328125 -0.875 0.328125zm6.443756 14.796875l0 -12.890625l1.265625 0l0.140625 1.15625l0.046875 0q0.640625 -0.59375 1.46875 -0.984375q0.828125 -0.40625 1.671875 -0.40625q1.234375 0 2.0625 0.578125q0.828125 0.5625 1.25 1.609375q0.4375 1.03125 0.4375 2.4375q0 1.53125 -0.578125 2.640625q-0.578125 1.09375 -1.515625 1.671875q-0.9375 0.578125 -2.03125 0.578125q-0.625 0 -1.359375 -0.296875q-0.734375 -0.3125 -1.34375 -0.875l-0.0625 0l0.078125 1.71875l0 3.0625l-1.53125 0zm3.953125 -4.890625q0.8125 0 1.4375 -0.421875q0.640625 -0.4375 1.0 -1.25q0.359375 -0.8125 0.359375 -1.9375q0 -0.984375 -0.265625 -1.734375q-0.25 -0.75 -0.8125 -1.171875q-0.5625 -0.421875 -1.46875 -0.421875q-0.625 0 -1.3125 0.328125q-0.671875 0.328125 -1.359375 1.03125l0 4.515625q0.65625 0.578125 1.3125 0.828125q0.671875 0.234375 1.109375 0.234375zm11.287506 1.28125q-1.328125 0 -2.484375 -0.421875q-1.15625 -0.4375 -1.96875 -0.984375l0.703125 -1.015625q0.78125 0.5625 1.734375 0.90625q0.953125 0.328125 2.203125 0.328125q1.15625 0 1.71875 -0.421875q0.578125 -0.4375 0.578125 -1.0q0 -0.265625 -0.109375 -0.484375q-0.09375 -0.21875 -0.390625 -0.421875q-0.28125 -0.203125 -0.84375 -0.390625q-0.5625 -0.1875 -1.5 -0.375q-1.765625 -0.375 -2.65625 -1.0q-0.875 -0.640625 -0.875 -1.65625q0 -1.09375 0.9375 -1.828125q0.953125 -0.75 2.828125 -0.75q1.046875 0 2.015625 0.359375q0.96875 0.34375 1.640625 0.796875l-0.75 1.0q-0.609375 -0.453125 -1.40625 -0.703125q-0.78125 -0.25 -1.640625 -0.25q-0.78125 0 -1.234375 0.171875q-0.453125 0.171875 -0.65625 0.484375q-0.1875 0.296875 -0.1875 0.640625q0 0.578125 0.625 0.90625q0.625 0.328125 2.0 0.609375q1.515625 0.3125 2.328125 0.71875q0.8125 0.390625 1.109375 0.890625q0.3125 0.5 0.3125 1.1875q0 0.75 -0.46875 1.359375q-0.46875 0.609375 -1.359375 0.984375q-0.890625 0.359375 -2.203125 0.359375zm11.193756 0q-1.328125 0 -2.484375 -0.421875q-1.15625 -0.4375 -1.96875 -0.984375l0.703125 -1.015625q0.78125 0.5625 1.734375 0.90625q0.953125 0.328125 2.203125 0.328125q1.15625 0 1.71875 -0.421875q0.578125 -0.4375 0.578125 -1.0q0 -0.265625 -0.109375 -0.484375q-0.09375 -0.21875 -0.390625 -0.421875q-0.28125 -0.203125 -0.84375 -0.390625q-0.5625 -0.1875 -1.5 -0.375q-1.765625 -0.375 -2.65625 -1.0q-0.875 -0.640625 -0.875 -1.65625q0 -1.09375 0.9375 -1.828125q0.953125 -0.75 2.828125 -0.75q1.046875 0 2.015625 0.359375q0.96875 0.34375 1.640625 0.796875l-0.75 1.0q-0.609375 -0.453125 -1.40625 -0.703125q-0.78125 -0.25 -1.640625 -0.25q-0.78125 0 -1.234375 0.171875q-0.453125 0.171875 -0.65625 0.484375q-0.1875 0.296875 -0.1875 0.640625q0 0.578125 0.625 0.90625q0.625 0.328125 2.0 0.609375q1.515625 0.3125 2.328125 0.71875q0.8125 0.390625 1.109375 0.890625q0.3125 0.5 0.3125 1.1875q0 0.75 -0.46875 1.359375q-0.46875 0.609375 -1.359375 0.984375q-0.890625 0.359375 -2.203125 0.359375zm11.568756 0q-1.359375 0 -2.46875 -0.546875q-1.109375 -0.5625 -1.765625 -1.640625q-0.65625 -1.078125 -0.65625 -2.578125q0 -1.484375 0.65625 -2.546875q0.65625 -1.0625 1.703125 -1.625q1.0625 -0.578125 2.265625 -0.578125q1.3125 0 2.234375 0.53125q0.921875 0.53125 1.40625 1.484375q0.5 0.953125 0.5 2.25q0 0.25 -0.015625 0.5q-0.015625 0.234375 -0.046875 0.421875l-7.671875 0l0 -1.1875l6.75 0l-0.390625 0.421875q0 -1.59375 -0.734375 -2.390625q-0.734375 -0.8125 -1.984375 -0.8125q-0.84375 0 -1.5625 0.421875q-0.71875 0.40625 -1.15625 1.1875q-0.421875 0.78125 -0.421875 1.921875q0 1.171875 0.46875 1.953125q0.46875 0.78125 1.265625 1.1875q0.796875 0.40625 1.8125 0.40625q0.8125 0 1.46875 -0.234375q0.671875 -0.234375 1.296875 -0.625l0.546875 1.0q-0.65625 0.453125 -1.53125 0.765625q-0.875 0.3125 -1.96875 0.3125zm7.756256 -0.21875l0 -9.0625l1.28125 0l0.125 2.140625l0.046875 0q0.71875 -1.09375 1.765625 -1.734375q1.046875 -0.640625 2.296875 -0.640625q0.5 0 0.9375 0.09375q0.4375 0.078125 0.84375 0.28125l-0.359375 1.328125q-0.453125 -0.171875 -0.796875 -0.234375q-0.328125 -0.078125 -0.875 -0.078125q-1.03125 0 -1.96875 0.59375q-0.9375 0.578125 -1.765625 2.0l0 5.3125l-1.53125 0zm15.818756 0.21875q-1.3125 0 -2.078125 -0.46875q-0.765625 -0.484375 -1.09375 -1.3125q-0.328125 -0.84375 -0.328125 -1.96875l0 -4.28125l-2.5625 0l0 -1.15625l2.625 -0.09375l0.203125 -2.921875l1.265625 0l0 2.921875l4.453125 0l0 1.25l-4.453125 0l0 4.3125q0 0.796875 0.203125 1.359375q0.203125 0.5625 0.703125 0.84375q0.515625 0.265625 1.390625 0.265625q0.65625 0 1.171875 -0.109375q0.515625 -0.109375 1.0 -0.296875l0.34375 1.125q-0.609375 0.21875 -1.296875 0.375q-0.6875 0.15625 -1.546875 0.15625z" fill-rule="nonzero"/><path fill="#cfe2f3" d="m129.79002 124.601265l0 0c0 -6.0332108 4.8908844 -10.924103 10.924103 -10.924103l146.15181 0c2.8972473 0 5.6758423 1.1509323 7.7244873 3.1996002c2.0486755 2.048668 3.1996155 4.8272552 3.1996155 7.7245026l0 43.695107c0 6.0332184 -4.8908997 10.924103 -10.924103 10.924103l-146.15181 0l0 0c-6.0332184 0 -10.924103 -4.8908844 -10.924103 -10.924103z" fill-rule="evenodd"/><path stroke="#000000" stroke-width="1.0" stroke-linejoin="round" stroke-linecap="butt" d="m129.79002 124.601265l0 0c0 -6.0332108 4.8908844 -10.924103 10.924103 -10.924103l146.15181 0c2.8972473 0 5.6758423 1.1509323 7.7244873 3.1996002c2.0486755 2.048668 3.1996155 4.8272552 3.1996155 7.7245026l0 43.695107c0 6.0332184 -4.8908997 10.924103 -10.924103 10.924103l-146.15181 0l0 0c-6.0332184 0 -10.924103 -4.8908844 -10.924103 -10.924103z" fill-rule="evenodd"/><path fill="#000000" d="m162.63374 153.36882l0 -10.9375l-4.03125 0l0 -1.296875l9.625 0l0 1.296875l-4.03125 0l0 10.9375l-1.5625 0zm12.537506 0.21875q-1.359375 0 -2.46875 -0.546875q-1.109375 -0.5625 -1.765625 -1.640625q-0.65625 -1.078125 -0.65625 -2.578125q0 -1.484375 0.65625 -2.546875q0.65625 -1.0625 1.703125 -1.625q1.0625 -0.578125 2.265625 -0.578125q1.3125 0 2.234375 0.53125q0.921875 0.53125 1.40625 1.484375q0.5 0.953125 0.5 2.25q0 0.25 -0.015625 0.5q-0.015625 0.234375 -0.046875 0.421875l-7.671875 0l0 -1.1875l6.75 0l-0.390625 0.421875q0 -1.59375 -0.734375 -2.390625q-0.734375 -0.8125 -1.984375 -0.8125q-0.84375 0 -1.5625 0.421875q-0.71875 0.40625 -1.15625 1.1875q-0.421875 0.78125 -0.421875 1.921875q0 1.171875 0.46875 1.953125q0.46875 0.78125 1.265625 1.1875q0.796875 0.40625 1.8125 0.40625q0.8125 0 1.46875 -0.234375q0.671875 -0.234375 1.296875 -0.625l0.546875 1.0q-0.65625 0.453125 -1.53125 0.765625q-0.875 0.3125 -1.96875 0.3125zm10.818756 0q-1.328125 0 -2.484375 -0.421875q-1.15625 -0.4375 -1.96875 -0.984375l0.703125 -1.015625q0.78125 0.5625 1.734375 0.90625q0.953125 0.328125 2.203125 0.328125q1.15625 0 1.71875 -0.421875q0.578125 -0.4375 0.578125 -1.0q0 -0.265625 -0.109375 -0.484375q-0.09375 -0.21875 -0.390625 -0.421875q-0.28125 -0.203125 -0.84375 -0.390625q-0.5625 -0.1875 -1.5 -0.375q-1.765625 -0.375 -2.65625 -1.0q-0.875 -0.640625 -0.875 -1.65625q0 -1.09375 0.9375 -1.828125q0.953125 -0.75 2.828125 -0.75q1.046875 0 2.015625 0.359375q0.96875 0.34375 1.640625 0.796875l-0.75 1.0q-0.609375 -0.453125 -1.40625 -0.703125q-0.78125 -0.25 -1.640625 -0.25q-0.78125 0 -1.234375 0.171875q-0.453125 0.171875 -0.65625 0.484375q-0.1875 0.296875 -0.1875 0.640625q0 0.578125 0.625 0.90625q0.625 0.328125 2.0 0.609375q1.515625 0.3125 2.328125 0.71875q0.8125 0.390625 1.109375 0.890625q0.3125 0.5 0.3125 1.1875q0 0.75 -0.46875 1.359375q-0.46875 0.609375 -1.359375 0.984375q-0.890625 0.359375 -2.203125 0.359375zm12.756256 0q-1.3125 0 -2.078125 -0.46875q-0.765625 -0.484375 -1.09375 -1.3125q-0.328125 -0.84375 -0.328125 -1.96875l0 -4.28125l-2.5625 0l0 -1.15625l2.625 -0.09375l0.203125 -2.921875l1.265625 0l0 2.921875l4.453125 0l0 1.25l-4.453125 0l0 4.3125q0 0.796875 0.203125 1.359375q0.203125 0.5625 0.703125 0.84375q0.515625 0.265625 1.390625 0.265625q0.65625 0 1.171875 -0.109375q0.515625 -0.109375 1.0 -0.296875l0.34375 1.125q-0.609375 0.21875 -1.296875 0.375q-0.6875 0.15625 -1.546875 0.15625zm20.731262 0q-1.34375 0 -2.46875 -0.484375q-1.125 -0.5 -1.96875 -1.3125l0.9375 -1.09375q0.6875 0.6875 1.609375 1.109375q0.921875 0.421875 1.96875 0.421875q1.265625 0 1.96875 -0.53125q0.703125 -0.546875 0.703125 -1.40625q0 -0.65625 -0.296875 -1.046875q-0.28125 -0.390625 -0.78125 -0.640625q-0.5 -0.265625 -1.125 -0.53125l-1.75 -0.765625q-0.625 -0.265625 -1.234375 -0.65625q-0.59375 -0.390625 -1.015625 -1.0q-0.40625 -0.609375 -0.40625 -1.5q0 -0.9375 0.515625 -1.671875q0.515625 -0.734375 1.421875 -1.15625q0.921875 -0.421875 2.078125 -0.421875q1.15625 0 2.125 0.421875q0.96875 0.421875 1.640625 1.09375l-0.828125 1.015625q-0.59375 -0.546875 -1.328125 -0.84375q-0.71875 -0.3125 -1.671875 -0.3125q-1.0625 0 -1.71875 0.46875q-0.640625 0.46875 -0.640625 1.3125q0 0.578125 0.3125 0.953125q0.328125 0.375 0.828125 0.625q0.515625 0.234375 1.03125 0.453125l1.71875 0.75q0.765625 0.296875 1.375 0.71875q0.625 0.421875 0.96875 1.046875q0.359375 0.609375 0.359375 1.5q0 0.96875 -0.53125 1.765625q-0.515625 0.796875 -1.484375 1.265625q-0.96875 0.453125 -2.3125 0.453125zm11.662506 0q-1.359375 0 -2.46875 -0.546875q-1.109375 -0.5625 -1.765625 -1.640625q-0.65625 -1.078125 -0.65625 -2.578125q0 -1.484375 0.65625 -2.546875q0.65625 -1.0625 1.703125 -1.625q1.0625 -0.578125 2.265625 -0.578125q1.3125 0 2.234375 0.53125q0.921875 0.53125 1.40625 1.484375q0.5 0.953125 0.5 2.25q0 0.25 -0.015625 0.5q-0.015625 0.234375 -0.046875 0.421875l-7.671875 0l0 -1.1875l6.75 0l-0.390625 0.421875q0 -1.59375 -0.734375 -2.390625q-0.734375 -0.8125 -1.984375 -0.8125q-0.84375 0 -1.5625 0.421875q-0.71875 0.40625 -1.15625 1.1875q-0.421875 0.78125 -0.421875 1.921875q0 1.171875 0.46875 1.953125q0.46875 0.78125 1.265625 1.1875q0.796875 0.40625 1.8125 0.40625q0.8125 0 1.46875 -0.234375q0.671875 -0.234375 1.296875 -0.625l0.546875 1.0q-0.65625 0.453125 -1.53125 0.765625q-0.875 0.3125 -1.96875 0.3125zm12.381256 0q-1.3125 0 -2.078125 -0.46875q-0.765625 -0.484375 -1.09375 -1.3125q-0.328125 -0.84375 -0.328125 -1.96875l0 -4.28125l-2.5625 0l0 -1.15625l2.625 -0.09375l0.203125 -2.921875l1.265625 0l0 2.921875l4.453125 0l0 1.25l-4.453125 0l0 4.3125q0 0.796875 0.203125 1.359375q0.203125 0.5625 0.703125 0.84375q0.515625 0.265625 1.390625 0.265625q0.65625 0 1.171875 -0.109375q0.515625 -0.109375 1.0 -0.296875l0.34375 1.125q-0.609375 0.21875 -1.296875 0.375q-0.6875 0.15625 -1.546875 0.15625zm16.856277 -0.21875l0 -1.265625l3.4375 0l0 -8.765625l-2.671875 0l0 -1.0q0.703125 -0.09375 1.234375 -0.21875q0.546875 -0.125 1.0 -0.28125q0.453125 -0.171875 0.828125 -0.375l1.125 0l0 10.640625l3.125 0l0 1.265625l-8.078125 0z" fill-rule="nonzero"/><path fill="#cfe2f3" d="m329.79004 124.601265l0 0c0 -6.0332108 4.890869 -10.924103 10.924103 -10.924103l146.1518 0c2.8972473 0 5.6758423 1.1509323 7.7244873 3.1996002c2.0486755 2.048668 3.1996155 4.8272552 3.1996155 7.7245026l0 43.695107c0 6.0332184 -4.8908997 10.924103 -10.924103 10.924103l-146.1518 0l0 0c-6.0332336 0 -10.924103 -4.8908844 -10.924103 -10.924103z" fill-rule="evenodd"/><path stroke="#000000" stroke-width="1.0" stroke-linejoin="round" stroke-linecap="butt" d="m329.79004 124.601265l0 0c0 -6.0332108 4.890869 -10.924103 10.924103 -10.924103l146.1518 0c2.8972473 0 5.6758423 1.1509323 7.7244873 3.1996002c2.0486755 2.048668 3.1996155 4.8272552 3.1996155 7.7245026l0 43.695107c0 6.0332184 -4.8908997 10.924103 -10.924103 10.924103l-146.1518 0l0 0c-6.0332336 0 -10.924103 -4.8908844 -10.924103 -10.924103z" fill-rule="evenodd"/><path fill="#000000" d="m362.63376 153.36882l0 -10.9375l-4.03125 0l0 -1.296875l9.625 0l0 1.296875l-4.03125 0l0 10.9375l-1.5625 0zm12.537506 0.21875q-1.359375 0 -2.46875 -0.546875q-1.109375 -0.5625 -1.765625 -1.640625q-0.65625 -1.078125 -0.65625 -2.578125q0 -1.484375 0.65625 -2.546875q0.65625 -1.0625 1.703125 -1.625q1.0625 -0.578125 2.265625 -0.578125q1.3125 0 2.234375 0.53125q0.921875 0.53125 1.40625 1.484375q0.5 0.953125 0.5 2.25q0 0.25 -0.015625 0.5q-0.015625 0.234375 -0.046875 0.421875l-7.671875 0l0 -1.1875l6.75 0l-0.390625 0.421875q0 -1.59375 -0.734375 -2.390625q-0.734375 -0.8125 -1.984375 -0.8125q-0.84375 0 -1.5625 0.421875q-0.71875 0.40625 -1.15625 1.1875q-0.421875 0.78125 -0.421875 1.921875q0 1.171875 0.46875 1.953125q0.46875 0.78125 1.265625 1.1875q0.796875 0.40625 1.8125 0.40625q0.8125 0 1.46875 -0.234375q0.671875 -0.234375 1.296875 -0.625l0.546875 1.0q-0.65625 0.453125 -1.53125 0.765625q-0.875 0.3125 -1.96875 0.3125zm10.818756 0q-1.328125 0 -2.484375 -0.421875q-1.15625 -0.4375 -1.96875 -0.984375l0.703125 -1.015625q0.78125 0.5625 1.734375 0.90625q0.953125 0.328125 2.203125 0.328125q1.15625 0 1.71875 -0.421875q0.578125 -0.4375 0.578125 -1.0q0 -0.265625 -0.109375 -0.484375q-0.09375 -0.21875 -0.390625 -0.421875q-0.28125 -0.203125 -0.84375 -0.390625q-0.5625 -0.1875 -1.5 -0.375q-1.765625 -0.375 -2.65625 -1.0q-0.875 -0.640625 -0.875 -1.65625q0 -1.09375 0.9375 -1.828125q0.953125 -0.75 2.828125 -0.75q1.046875 0 2.015625 0.359375q0.96875 0.34375 1.640625 0.796875l-0.75 1.0q-0.609375 -0.453125 -1.40625 -0.703125q-0.78125 -0.25 -1.640625 -0.25q-0.78125 0 -1.234375 0.171875q-0.453125 0.171875 -0.65625 0.484375q-0.1875 0.296875 -0.1875 0.640625q0 0.578125 0.625 0.90625q0.625 0.328125 2.0 0.609375q1.515625 0.3125 2.328125 0.71875q0.8125 0.390625 1.109375 0.890625q0.3125 0.5 0.3125 1.1875q0 0.75 -0.46875 1.359375q-0.46875 0.609375 -1.359375 0.984375q-0.890625 0.359375 -2.203125 0.359375zm12.756256 0q-1.3125 0 -2.078125 -0.46875q-0.765625 -0.484375 -1.09375 -1.3125q-0.328125 -0.84375 -0.328125 -1.96875l0 -4.28125l-2.5625 0l0 -1.15625l2.625 -0.09375l0.203125 -2.921875l1.265625 0l0 2.921875l4.453125 0l0 1.25l-4.453125 0l0 4.3125q0 0.796875 0.203125 1.359375q0.203125 0.5625 0.703125 0.84375q0.515625 0.265625 1.390625 0.265625q0.65625 0 1.171875 -0.109375q0.515625 -0.109375 1.0 -0.296875l0.34375 1.125q-0.609375 0.21875 -1.296875 0.375q-0.6875 0.15625 -1.546875 0.15625zm20.731262 0q-1.34375 0 -2.46875 -0.484375q-1.125 -0.5 -1.96875 -1.3125l0.9375 -1.09375q0.6875 0.6875 1.609375 1.109375q0.921875 0.421875 1.96875 0.421875q1.265625 0 1.96875 -0.53125q0.703125 -0.546875 0.703125 -1.40625q0 -0.65625 -0.296875 -1.046875q-0.28125 -0.390625 -0.78125 -0.640625q-0.5 -0.265625 -1.125 -0.53125l-1.75 -0.765625q-0.625 -0.265625 -1.234375 -0.65625q-0.59375 -0.390625 -1.015625 -1.0q-0.40625 -0.609375 -0.40625 -1.5q0 -0.9375 0.515625 -1.671875q0.515625 -0.734375 1.421875 -1.15625q0.921875 -0.421875 2.078125 -0.421875q1.15625 0 2.125 0.421875q0.96875 0.421875 1.640625 1.09375l-0.828125 1.015625q-0.59375 -0.546875 -1.328125 -0.84375q-0.71875 -0.3125 -1.671875 -0.3125q-1.0625 0 -1.71875 0.46875q-0.640625 0.46875 -0.640625 1.3125q0 0.578125 0.3125 0.953125q0.328125 0.375 0.828125 0.625q0.515625 0.234375 1.03125 0.453125l1.71875 0.75q0.765625 0.296875 1.375 0.71875q0.625 0.421875 0.96875 1.046875q0.359375 0.609375 0.359375 1.5q0 0.96875 -0.53125 1.765625q-0.515625 0.796875 -1.484375 1.265625q-0.96875 0.453125 -2.3125 0.453125zm11.662506 0q-1.359375 0 -2.46875 -0.546875q-1.109375 -0.5625 -1.765625 -1.640625q-0.65625 -1.078125 -0.65625 -2.578125q0 -1.484375 0.65625 -2.546875q0.65625 -1.0625 1.703125 -1.625q1.0625 -0.578125 2.265625 -0.578125q1.3125 0 2.234375 0.53125q0.921875 0.53125 1.40625 1.484375q0.5 0.953125 0.5 2.25q0 0.25 -0.015625 0.5q-0.015625 0.234375 -0.046875 0.421875l-7.671875 0l0 -1.1875l6.75 0l-0.390625 0.421875q0 -1.59375 -0.734375 -2.390625q-0.734375 -0.8125 -1.984375 -0.8125q-0.84375 0 -1.5625 0.421875q-0.71875 0.40625 -1.15625 1.1875q-0.421875 0.78125 -0.421875 1.921875q0 1.171875 0.46875 1.953125q0.46875 0.78125 1.265625 1.1875q0.796875 0.40625 1.8125 0.40625q0.8125 0 1.46875 -0.234375q0.671875 -0.234375 1.296875 -0.625l0.546875 1.0q-0.65625 0.453125 -1.53125 0.765625q-0.875 0.3125 -1.96875 0.3125zm12.381256 0q-1.3125 0 -2.078125 -0.46875q-0.765625 -0.484375 -1.09375 -1.3125q-0.328125 -0.84375 -0.328125 -1.96875l0 -4.28125l-2.5625 0l0 -1.15625l2.625 -0.09375l0.203125 -2.921875l1.265625 0l0 2.921875l4.453125 0l0 1.25l-4.453125 0l0 4.3125q0 0.796875 0.203125 1.359375q0.203125 0.5625 0.703125 0.84375q0.515625 0.265625 1.390625 0.265625q0.65625 0 1.171875 -0.109375q0.515625 -0.109375 1.0 -0.296875l0.34375 1.125q-0.609375 0.21875 -1.296875 0.375q-0.6875 0.15625 -1.546875 0.15625zm16.403137 -0.21875l0 -0.921875q2.015625 -1.765625 3.40625 -3.109375q1.390625 -1.359375 2.109375 -2.4375q0.734375 -1.09375 0.734375 -2.078125q0 -1.03125 -0.640625 -1.671875q-0.625 -0.65625 -1.953125 -0.65625q-0.84375 0 -1.5625 0.40625q-0.703125 0.40625 -1.28125 1.03125l-0.890625 -0.875q0.8125 -0.828125 1.734375 -1.3125q0.921875 -0.5 2.1875 -0.5q1.203125 0 2.0625 0.4375q0.875 0.4375 1.34375 1.21875q0.46875 0.78125 0.46875 1.84375q0 1.125 -0.6875 2.265625q-0.6875 1.140625 -1.9375 2.40625q-1.234375 1.25 -2.859375 2.734375q0.5625 -0.046875 1.125 -0.078125q0.5625 -0.03125 1.109375 -0.03125l3.90625 0l0 1.328125l-8.375 0z" fill-rule="nonzero"/><path fill="#cfe2f3" d="m606.09973 124.601265l0 0c0 -6.0332108 4.890869 -10.924103 10.924133 -10.924103l146.1518 0c2.8972168 0 5.6758423 1.1509323 7.7244873 3.1996002c2.048645 2.048668 3.199585 4.8272552 3.199585 7.7245026l0 43.695107c0 6.0332184 -4.890869 10.924103 -10.924072 10.924103l-146.1518 0l0 0c-6.033264 0 -10.924133 -4.8908844 -10.924133 -10.924103z" fill-rule="evenodd"/><path stroke="#000000" stroke-width="1.0" stroke-linejoin="round" stroke-linecap="butt" d="m606.09973 124.601265l0 0c0 -6.0332108 4.890869 -10.924103 10.924133 -10.924103l146.1518 0c2.8972168 0 5.6758423 1.1509323 7.7244873 3.1996002c2.048645 2.048668 3.199585 4.8272552 3.199585 7.7245026l0 43.695107c0 6.0332184 -4.890869 10.924103 -10.924072 10.924103l-146.1518 0l0 0c-6.033264 0 -10.924133 -4.8908844 -10.924133 -10.924103z" fill-rule="evenodd"/><path fill="#000000" d="m638.9435 153.36882l0 -10.9375l-4.03125 0l0 -1.296875l9.625 0l0 1.296875l-4.03125 0l0 10.9375l-1.5625 0zm12.537476 0.21875q-1.359375 0 -2.46875 -0.546875q-1.109375 -0.5625 -1.765625 -1.640625q-0.65625 -1.078125 -0.65625 -2.578125q0 -1.484375 0.65625 -2.546875q0.65625 -1.0625 1.703125 -1.625q1.0625 -0.578125 2.265625 -0.578125q1.3125 0 2.234375 0.53125q0.921875 0.53125 1.40625 1.484375q0.5 0.953125 0.5 2.25q0 0.25 -0.015625 0.5q-0.015625 0.234375 -0.046875 0.421875l-7.671875 0l0 -1.1875l6.75 0l-0.390625 0.421875q0 -1.59375 -0.734375 -2.390625q-0.734375 -0.8125 -1.984375 -0.8125q-0.84375 0 -1.5625 0.421875q-0.71875 0.40625 -1.15625 1.1875q-0.421875 0.78125 -0.421875 1.921875q0 1.171875 0.46875 1.953125q0.46875 0.78125 1.265625 1.1875q0.796875 0.40625 1.8125 0.40625q0.8125 0 1.46875 -0.234375q0.671875 -0.234375 1.296875 -0.625l0.546875 1.0q-0.65625 0.453125 -1.53125 0.765625q-0.875 0.3125 -1.96875 0.3125zm10.818787 0q-1.328125 0 -2.484375 -0.421875q-1.15625 -0.4375 -1.96875 -0.984375l0.703125 -1.015625q0.78125 0.5625 1.734375 0.90625q0.953125 0.328125 2.203125 0.328125q1.15625 0 1.71875 -0.421875q0.578125 -0.4375 0.578125 -1.0q0 -0.265625 -0.109375 -0.484375q-0.09375 -0.21875 -0.390625 -0.421875q-0.28125 -0.203125 -0.84375 -0.390625q-0.5625 -0.1875 -1.5 -0.375q-1.765625 -0.375 -2.65625 -1.0q-0.875 -0.640625 -0.875 -1.65625q0 -1.09375 0.9375 -1.828125q0.953125 -0.75 2.828125 -0.75q1.046875 0 2.015625 0.359375q0.96875 0.34375 1.640625 0.796875l-0.75 1.0q-0.609375 -0.453125 -1.40625 -0.703125q-0.78125 -0.25 -1.640625 -0.25q-0.78125 0 -1.234375 0.171875q-0.453125 0.171875 -0.65625 0.484375q-0.1875 0.296875 -0.1875 0.640625q0 0.578125 0.625 0.90625q0.625 0.328125 2.0 0.609375q1.515625 0.3125 2.328125 0.71875q0.8125 0.390625 1.109375 0.890625q0.3125 0.5 0.3125 1.1875q0 0.75 -0.46875 1.359375q-0.46875 0.609375 -1.359375 0.984375q-0.890625 0.359375 -2.203125 0.359375zm12.756226 0q-1.3125 0 -2.078125 -0.46875q-0.765625 -0.484375 -1.09375 -1.3125q-0.328125 -0.84375 -0.328125 -1.96875l0 -4.28125l-2.5625 0l0 -1.15625l2.625 -0.09375l0.203125 -2.921875l1.265625 0l0 2.921875l4.453125 0l0 1.25l-4.453125 0l0 4.3125q0 0.796875 0.203125 1.359375q0.203125 0.5625 0.703125 0.84375q0.515625 0.265625 1.390625 0.265625q0.65625 0 1.171875 -0.109375q0.515625 -0.109375 1.0 -0.296875l0.34375 1.125q-0.609375 0.21875 -1.296875 0.375q-0.6875 0.15625 -1.546875 0.15625zm20.731262 0q-1.34375 0 -2.46875 -0.484375q-1.125 -0.5 -1.96875 -1.3125l0.9375 -1.09375q0.6875 0.6875 1.609375 1.109375q0.921875 0.421875 1.96875 0.421875q1.265625 0 1.96875 -0.53125q0.703125 -0.546875 0.703125 -1.40625q0 -0.65625 -0.296875 -1.046875q-0.28125 -0.390625 -0.78125 -0.640625q-0.5 -0.265625 -1.125 -0.53125l-1.75 -0.765625q-0.625 -0.265625 -1.234375 -0.65625q-0.59375 -0.390625 -1.015625 -1.0q-0.40625 -0.609375 -0.40625 -1.5q0 -0.9375 0.515625 -1.671875q0.515625 -0.734375 1.421875 -1.15625q0.921875 -0.421875 2.078125 -0.421875q1.15625 0 2.125 0.421875q0.96875 0.421875 1.640625 1.09375l-0.828125 1.015625q-0.59375 -0.546875 -1.328125 -0.84375q-0.71875 -0.3125 -1.671875 -0.3125q-1.0625 0 -1.71875 0.46875q-0.640625 0.46875 -0.640625 1.3125q0 0.578125 0.3125 0.953125q0.328125 0.375 0.828125 0.625q0.515625 0.234375 1.03125 0.453125l1.71875 0.75q0.765625 0.296875 1.375 0.71875q0.625 0.421875 0.96875 1.046875q0.359375 0.609375 0.359375 1.5q0 0.96875 -0.53125 1.765625q-0.515625 0.796875 -1.484375 1.265625q-0.96875 0.453125 -2.3125 0.453125zm11.662537 0q-1.359375 0 -2.46875 -0.546875q-1.109375 -0.5625 -1.765625 -1.640625q-0.65625 -1.078125 -0.65625 -2.578125q0 -1.484375 0.65625 -2.546875q0.65625 -1.0625 1.703125 -1.625q1.0625 -0.578125 2.265625 -0.578125q1.3125 0 2.234375 0.53125q0.921875 0.53125 1.40625 1.484375q0.5 0.953125 0.5 2.25q0 0.25 -0.015625 0.5q-0.015625 0.234375 -0.046875 0.421875l-7.671875 0l0 -1.1875l6.75 0l-0.390625 0.421875q0 -1.59375 -0.734375 -2.390625q-0.734375 -0.8125 -1.984375 -0.8125q-0.84375 0 -1.5625 0.421875q-0.71875 0.40625 -1.15625 1.1875q-0.421875 0.78125 -0.421875 1.921875q0 1.171875 0.46875 1.953125q0.46875 0.78125 1.265625 1.1875q0.796875 0.40625 1.8125 0.40625q0.8125 0 1.46875 -0.234375q0.671875 -0.234375 1.296875 -0.625l0.546875 1.0q-0.65625 0.453125 -1.53125 0.765625q-0.875 0.3125 -1.96875 0.3125zm12.381226 0q-1.3125 0 -2.078125 -0.46875q-0.765625 -0.484375 -1.09375 -1.3125q-0.328125 -0.84375 -0.328125 -1.96875l0 -4.28125l-2.5625 0l0 -1.15625l2.625 -0.09375l0.203125 -2.921875l1.265625 0l0 2.921875l4.453125 0l0 1.25l-4.453125 0l0 4.3125q0 0.796875 0.203125 1.359375q0.203125 0.5625 0.703125 0.84375q0.515625 0.265625 1.390625 0.265625q0.65625 0 1.171875 -0.109375q0.515625 -0.109375 1.0 -0.296875l0.34375 1.125q-0.609375 0.21875 -1.296875 0.375q-0.6875 0.15625 -1.546875 0.15625zm16.575012 -0.21875l0 -12.234375l1.71875 0l3.90625 7.6875l1.1875 2.53125l0.03125 0q-0.03125 -0.90625 -0.125 -1.90625q-0.078125 -1.0 -0.078125 -1.96875l0 -6.34375l1.484375 0l0 12.234375l-1.703125 0l-3.921875 -7.6875l-1.171875 -2.53125l-0.046875 0q0.046875 0.921875 0.125 1.90625q0.078125 0.96875 0.078125 1.90625l0 6.40625l-1.484375 0z" fill-rule="nonzero"/><path fill="#000000" fill-opacity="0.0" d="m541.17584 148.7559l36.0 -0.94488525" fill-rule="evenodd"/><path stroke="#000000" stroke-width="3.0" stroke-linejoin="round" stroke-linecap="butt" stroke-dasharray="3.0,9.0" d="m541.17584 148.7559l36.0 -0.94488525" fill-rule="evenodd"/><path fill="#000000" fill-opacity="0.0" d="m441.01837 75.220474l-227.2126 38.456688" fill-rule="evenodd"/><path stroke="#000000" stroke-width="1.0" stroke-linejoin="round" stroke-linecap="butt" d="m441.01837 75.220474l-221.29674 37.455406" fill-rule="evenodd"/><path fill="#000000" stroke="#000000" stroke-width="1.0" stroke-linecap="butt" d="m219.446 111.04731l-4.198822 2.3858948l4.750107 0.87124634z" fill-rule="evenodd"/><path fill="#000000" fill-opacity="0.0" d="m441.01837 75.220474l-27.212585 38.456688" fill-rule="evenodd"/><path stroke="#000000" stroke-width="1.0" stroke-linejoin="round" stroke-linecap="butt" d="m441.01837 75.220474l-23.746826 33.55889" fill-rule="evenodd"/><path fill="#000000" stroke="#000000" stroke-width="1.0" stroke-linecap="butt" d="m415.92322 107.82528l-1.2730103 4.658531l3.969635 -2.7503586z" fill-rule="evenodd"/><path fill="#000000" fill-opacity="0.0" d="m441.01837 75.220474l249.07086 38.456688" fill-rule="evenodd"/><path stroke="#000000" stroke-width="1.0" stroke-linejoin="round" stroke-linecap="butt" d="m441.01837 75.220474l243.14111 37.54113" fill-rule="evenodd"/><path fill="#000000" stroke="#000000" stroke-width="1.0" stroke-linecap="butt" d="m683.9075 114.394l4.7369995 -0.9399109l-4.23291 -2.3248672z" fill-rule="evenodd"/><path fill="#cfe2f3" d="m14.1745405 344.13385c3.9507933 0 7.1535425 -3.2027283 7.1535425 -7.153534l-7.1535425 0c1.9753962 0 3.5767717 -1.6013794 3.5767717 -3.5767822c0 -1.9753723 -1.6013756 -3.5767517 -3.5767717 -3.5767517l7.1535425 0l0 -92.99608l0 0c0 -3.9507904 3.2027512 -7.153534 7.1535435 -7.153534l104.29921 0c3.9507904 0 7.153549 3.2027435 7.153549 7.153534c0 3.9507904 -3.2027588 7.153549 -7.153549 7.153549l-7.1535416 0l0 92.99606c0 3.9508057 -3.2027512 7.153534 -7.1535416 7.153534zm21.460629 -107.30315l0 0c0 3.9507904 -3.2027512 7.153549 -7.1535435 7.153549c-1.9753952 0 -3.5767708 -1.6013794 -3.5767708 -3.576767c0 -1.9754028 1.6013756 -3.5767822 3.5767708 -3.5767822z" fill-rule="evenodd"/><path fill="#a5b4c2" d="m35.63517 236.8307l0 0c0 3.9507904 -3.2027512 7.153549 -7.1535435 7.153549c-1.9753952 0 -3.5767708 -1.6013794 -3.5767708 -3.576767c0 -1.9754028 1.6013756 -3.5767822 3.5767708 -3.5767822zm-14.307087 100.14961c0 3.9508057 -3.2027493 7.153534 -7.1535425 7.153534c-3.9507923 0 -7.153543 -3.2027283 -7.153543 -7.153534c0 -3.9508057 3.2027507 -7.153534 7.153543 -7.153534l0 0c1.9753962 0 3.5767717 1.6013794 3.5767717 3.5767517c0 1.9754028 -1.6013756 3.5767822 -3.5767717 3.5767822z" fill-rule="evenodd"/><path fill="#000000" fill-opacity="0.0" d="m21.328083 329.82678l0 -92.99608l0 0c0 -3.9507904 3.2027512 -7.153534 7.1535435 -7.153534l104.29921 0c3.9507904 0 7.153549 3.2027435 7.153549 7.153534c0 3.9507904 -3.2027588 7.153549 -7.153549 7.153549l-7.1535416 0l0 92.99606c0 3.9508057 -3.2027512 7.153534 -7.1535416 7.153534l-104.29922 0c-3.9507923 0 -7.153543 -3.2027283 -7.153543 -7.153534c0 -3.9508057 3.2027507 -7.153534 7.153543 -7.153534zm7.1535435 -100.14961l0 0c3.9507923 0 7.1535435 3.2027435 7.1535435 7.153534c0 3.9507904 -3.2027512 7.153549 -7.1535435 7.153549c-1.9753952 0 -3.5767708 -1.6013794 -3.5767708 -3.576767c0 -1.9754028 1.6013756 -3.5767822 3.5767708 -3.5767822l7.1535435 0m89.99213 7.153549l-97.14567 0m-14.307086 85.84253l0 0c1.9753962 0 3.5767717 1.6013794 3.5767717 3.5767517c0 1.9754028 -1.6013756 3.5767822 -3.5767717 3.5767822l7.1535425 0m-7.1535425 7.153534c3.9507933 0 7.1535425 -3.2027283 7.1535425 -7.153534l0 -7.153534" fill-rule="evenodd"/><path stroke="#000000" stroke-width="1.0" stroke-linejoin="round" stroke-linecap="butt" d="m21.328083 329.82678l0 -92.99608l0 0c0 -3.9507904 3.2027512 -7.153534 7.1535435 -7.153534l104.29921 0c3.9507904 0 7.153549 3.2027435 7.153549 7.153534c0 3.9507904 -3.2027588 7.153549 -7.153549 7.153549l-7.1535416 0l0 92.99606c0 3.9508057 -3.2027512 7.153534 -7.1535416 7.153534l-104.29922 0c-3.9507923 0 -7.153543 -3.2027283 -7.153543 -7.153534c0 -3.9508057 3.2027507 -7.153534 7.153543 -7.153534zm7.1535435 -100.14961l0 0c3.9507923 0 7.1535435 3.2027435 7.1535435 7.153534c0 3.9507904 -3.2027512 7.153549 -7.1535435 7.153549c-1.9753952 0 -3.5767708 -1.6013794 -3.5767708 -3.576767c0 -1.9754028 1.6013756 -3.5767822 3.5767708 -3.5767822l7.1535435 0m89.99213 7.153549l-97.14567 0m-14.307086 85.84253l0 0c1.9753962 0 3.5767717 1.6013794 3.5767717 3.5767517c0 1.9754028 -1.6013756 3.5767822 -3.5767717 3.5767822l7.1535425 0m-7.1535425 7.153534c3.9507933 0 7.1535425 -3.2027283 7.1535425 -7.153534l0 -7.153534" fill-rule="evenodd"/><path fill="#000000" d="m34.296833 265.9405q-0.875 0 -1.734375 -0.3125q-0.859375 -0.328125 -1.5625 -0.9375l1.125 -1.34375q0.5 0.390625 1.09375 0.65625q0.59375 0.25 1.21875 0.25q0.625 0 0.921875 -0.203125q0.296875 -0.21875 0.296875 -0.5625q0 -0.296875 -0.15625 -0.46875q-0.15625 -0.1875 -0.46875 -0.328125q-0.3125 -0.140625 -0.71875 -0.3125l-1.125 -0.484375q-0.46875 -0.1875 -0.90625 -0.5q-0.421875 -0.3125 -0.6875 -0.765625q-0.25 -0.46875 -0.25 -1.109375q0 -0.71875 0.40625 -1.296875q0.40625 -0.578125 1.109375 -0.921875q0.71875 -0.359375 1.671875 -0.359375q0.78125 0 1.53125 0.296875q0.765625 0.28125 1.359375 0.84375l-1.0 1.234375q-0.453125 -0.328125 -0.90625 -0.5q-0.453125 -0.1875 -1.09375 -0.1875q-0.484375 0 -0.796875 0.203125q-0.296875 0.203125 -0.296875 0.578125q0 0.25 0.1875 0.4375q0.1875 0.171875 0.5 0.3125q0.328125 0.125 0.734375 0.28125l1.0625 0.453125q0.578125 0.21875 0.984375 0.53125q0.421875 0.3125 0.640625 0.765625q0.234375 0.453125 0.234375 1.0625q0 0.71875 -0.390625 1.328125q-0.390625 0.609375 -1.15625 0.984375q-0.75 0.375 -1.828125 0.375zm8.606216 0q-1.046875 0 -1.890625 -0.40625q-0.828125 -0.40625 -1.3125 -1.1875q-0.484375 -0.78125 -0.484375 -1.875q0 -1.078125 0.53125 -1.859375q0.53125 -0.78125 1.40625 -1.1875q0.875 -0.40625 1.890625 -0.40625q0.78125 0 1.421875 0.25q0.640625 0.234375 1.0625 0.640625l-0.90625 1.203125q-0.390625 -0.265625 -0.75 -0.390625q-0.34375 -0.125 -0.71875 -0.125q-0.5625 0 -1.0 0.234375q-0.4375 0.21875 -0.6875 0.65625q-0.234375 0.421875 -0.234375 0.984375q0 0.578125 0.234375 1.015625q0.234375 0.421875 0.65625 0.65625q0.421875 0.21875 0.96875 0.21875q0.515625 0 0.9375 -0.1875q0.4375 -0.1875 0.796875 -0.4375l0.796875 1.234375q-0.59375 0.5 -1.328125 0.734375q-0.71875 0.234375 -1.390625 0.234375zm7.8093414 0q-1.015625 0 -1.859375 -0.40625q-0.828125 -0.40625 -1.3125 -1.1875q-0.484375 -0.78125 -0.484375 -1.875q0 -1.078125 0.484375 -1.84375q0.5 -0.78125 1.28125 -1.1875q0.796875 -0.421875 1.671875 -0.421875q1.03125 0 1.71875 0.421875q0.6875 0.40625 1.046875 1.125q0.359375 0.71875 0.359375 1.625q0 0.265625 -0.046875 0.515625q-0.03125 0.234375 -0.046875 0.359375l-5.015625 0l0 -1.3125l3.6875 0l-0.296875 0.359375q0 -0.796875 -0.34375 -1.203125q-0.34375 -0.40625 -1.0 -0.40625q-0.46875 0 -0.84375 0.21875q-0.359375 0.21875 -0.5625 0.65625q-0.1875 0.4375 -0.1875 1.09375q0 0.6875 0.234375 1.125q0.25 0.421875 0.703125 0.640625q0.453125 0.21875 1.09375 0.21875q0.453125 0 0.859375 -0.125q0.40625 -0.125 0.84375 -0.34375l0.65625 1.1875q-0.578125 0.359375 -1.28125 0.5625q-0.6875 0.203125 -1.359375 0.203125zm4.5593414 -0.15625l0 -6.609375l1.609375 0l0.140625 0.875l0.0625 0q0.421875 -0.421875 0.96875 -0.71875q0.5625 -0.3125 1.296875 -0.3125q1.125 0 1.640625 0.71875q0.53125 0.71875 0.53125 1.96875l0 4.078125l-1.96875 0l0 -3.828125q0 -0.65625 -0.21875 -0.96875q-0.21875 -0.3125 -0.75 -0.3125q-0.40625 0 -0.703125 0.1875q-0.296875 0.171875 -0.640625 0.515625l0 4.40625l-1.96875 0zm10.028095 0.15625q-0.671875 0 -1.15625 -0.265625q-0.4843788 -0.265625 -0.7500038 -0.71875q-0.265625 -0.453125 -0.265625 -1.015625q0 -1.109375 1.0000038 -1.6875q1.015625 -0.59375 3.359375 -0.71875q-0.046875 -0.3125 -0.203125 -0.515625q-0.15625 -0.21875 -0.453125 -0.328125q-0.296875 -0.125 -0.75 -0.125q-0.328125 0 -0.65625 0.078125q-0.3125 0.078125 -0.65625 0.21875q-0.328125 0.140625 -0.703125 0.328125l-0.7031288 -1.28125q0.453125 -0.265625 0.9531288 -0.46875q0.5 -0.203125 1.03125 -0.3125q0.546875 -0.109375 1.109375 -0.109375q0.9375 0 1.59375 0.328125q0.671875 0.3125 1.03125 0.984375q0.359375 0.65625 0.359375 1.671875l0 3.78125l-1.59375 0l-0.140625 -0.75l-0.0625 0q-0.484375 0.375 -1.09375 0.640625q-0.59375 0.265625 -1.25 0.265625zm0.625 -1.515625q0.4375 0 0.828125 -0.171875q0.390625 -0.1875 0.734375 -0.453125l0 -1.09375q-0.96875 0.046875 -1.515625 0.203125q-0.53125 0.140625 -0.75 0.375q-0.21875 0.21875 -0.21875 0.515625q0 0.203125 0.109375 0.34375q0.125 0.140625 0.328125 0.21875q0.203125 0.0625 0.484375 0.0625zm5.9343414 1.359375l0 -6.609375l1.59375 0l0.171875 1.4375l0.03125 0q0.5 -0.8125 1.1875 -1.203125q0.703125 -0.390625 1.5 -0.390625q0.4375 0 0.703125 0.0625q0.28125 0.0625 0.5625 0.203125l-0.390625 1.640625q-0.3125 -0.09375 -0.5625 -0.140625q-0.234375 -0.046875 -0.609375 -0.046875q-0.609375 0 -1.203125 0.359375q-0.59375 0.359375 -1.03125 1.25l0 3.4375l-1.953125 0zm10.153091 0l0 -5.078125l-2.65625 0l0 -1.53125l4.625 0l0 6.609375l-1.96875 0zm0.890625 -7.65625q-0.5625 0 -0.9375 -0.3125q-0.375 -0.328125 -0.375 -0.875q0 -0.546875 0.375 -0.875q0.375 -0.34373474 0.9375 -0.34373474q0.578125 0 0.9375 0.34373474q0.359375 0.328125 0.359375 0.875q0 0.546875 -0.359375 0.875q-0.359375 0.3125 -0.9375 0.3125zm7.4030914 7.8125q-0.875 0 -1.640625 -0.40625q-0.765625 -0.40625 -1.25 -1.1875q-0.484375 -0.78125 -0.484375 -1.875q0 -1.078125 0.484375 -1.859375q0.484375 -0.78125 1.25 -1.1875q0.765625 -0.40625 1.640625 -0.40625q0.859375 0 1.625 0.40625q0.78125 0.40625 1.265625 1.1875q0.484375 0.78125 0.484375 1.859375q0 1.09375 -0.484375 1.875q-0.484375 0.78125 -1.265625 1.1875q-0.765625 0.40625 -1.625 0.40625zm0 -1.578125q0.453125 0 0.75 -0.21875q0.296875 -0.234375 0.453125 -0.65625q0.15625 -0.4375 0.15625 -1.015625q0 -0.5625 -0.15625 -0.984375q-0.15625 -0.4375 -0.453125 -0.65625q-0.296875 -0.234375 -0.75 -0.234375q-0.453125 0 -0.75 0.234375q-0.296875 0.21875 -0.453125 0.65625q-0.15625 0.421875 -0.15625 0.984375q0 0.578125 0.15625 1.015625q0.15625 0.421875 0.453125 0.65625q0.296875 0.21875 0.75 0.21875zm15.993683 1.578125q-0.96875 0 -1.703125 -0.5q-0.734375 -0.515625 -1.140625 -1.5q-0.40625 -1.0 -0.40625 -2.421875q0 -2.171875 0.890625 -3.265625q0.890625 -1.09375 2.359375 -1.09375q1.484375 0 2.359375 1.09375q0.890625 1.09375 0.890625 3.265625q0 1.421875 -0.40625 2.421875q-0.40625 0.984375 -1.140625 1.5q-0.71875 0.5 -1.703125 0.5zm0 -1.515625q0.421875 0 0.765625 -0.265625q0.34375 -0.265625 0.53125 -0.90625q0.203125 -0.640625 0.203125 -1.734375q0 -1.109375 -0.203125 -1.71875q-0.1875 -0.625 -0.53125 -0.875q-0.34375 -0.25 -0.765625 -0.25q-0.421875 0 -0.765625 0.25q-0.34375 0.25 -0.546875 0.875q-0.1875 0.609375 -0.1875 1.71875q0 1.09375 0.1875 1.734375q0.203125 0.640625 0.546875 0.90625q0.34375 0.265625 0.765625 0.265625zm0 -1.921875q-0.421875 0 -0.71875 -0.28125q-0.28125 -0.28125 -0.28125 -0.734375q0 -0.46875 0.28125 -0.734375q0.296875 -0.265625 0.71875 -0.265625q0.421875 0 0.703125 0.265625q0.296875 0.265625 0.296875 0.734375q0 0.453125 -0.296875 0.734375q-0.28125 0.28125 -0.703125 0.28125z" fill-rule="nonzero"/><path fill="#000000" d="m38.309086 275.15924q0.71875 0 1.40625 0.375q0.6875 0.359375 1.0625 1.0625q0.390625 0.6875 0.390625 1.421875q0 1.1875 -0.84375 2.03125q-0.828125 0.84375 -2.015625 0.84375q-1.1875 0 -2.03125 -0.84375q-0.84375 -0.84375 -0.84375 -2.03125q0 -0.75 0.375 -1.4375q0.390625 -0.6875 1.078125 -1.046875q0.703125 -0.375 1.421875 -0.375z" fill-rule="nonzero"/><path fill="#000000" d="m57.765583 281.78424l0 -7.8125l-2.875 0l0 -0.9375l6.875 0l0 0.9375l-2.875 0l0 7.8125l-1.125 0zm7.8405952 0.15625q-0.609375 0 -1.109375 -0.21875q-0.5000038 -0.21875 -0.7968788 -0.625q-0.296875 -0.421875 -0.296875 -0.984375q0 -1.09375 1.0937538 -1.65625q1.09375 -0.578125 3.59375 -0.78125q-0.015625 -0.4375 -0.1875 -0.8125q-0.15625 -0.375 -0.53125 -0.59375q-0.375 -0.21875 -1.0 -0.21875q-0.40625 0 -0.8125 0.125q-0.40625 0.109375 -0.78125 0.296875q-0.359375 0.171875 -0.671875 0.359375l-0.4218788 -0.75q0.3125 -0.21875 0.7656288 -0.4375q0.46875 -0.21875 1.0 -0.359375q0.546875 -0.140625 1.109375 -0.140625q0.890625 0 1.46875 0.34375q0.59375 0.328125 0.875 0.921875q0.28125 0.59375 0.28125 1.40625l0 3.96875l-0.890625 0l-0.09375 -0.875l-0.03125 0q-0.546875 0.421875 -1.21875 0.734375q-0.65625 0.296875 -1.34375 0.296875zm0.296875 -0.875q0.546875 0 1.09375 -0.25q0.546875 -0.25 1.09375 -0.703125l0 -1.71875q-1.375 0.125 -2.171875 0.34375q-0.796875 0.203125 -1.125 0.53125q-0.328125 0.328125 -0.328125 0.75q0 0.359375 0.203125 0.59375q0.203125 0.234375 0.53125 0.34375q0.328125 0.109375 0.703125 0.109375zm8.543716 0.875q-0.9375 0 -1.765625 -0.296875q-0.828125 -0.3125 -1.40625 -0.71875l0.5 -0.71875q0.5625 0.40625 1.234375 0.65625q0.6875 0.234375 1.578125 0.234375q0.828125 0 1.234375 -0.3125q0.40625 -0.3125 0.40625 -0.703125q0 -0.1875 -0.078125 -0.34375q-0.078125 -0.171875 -0.28125 -0.3125q-0.203125 -0.140625 -0.609375 -0.265625q-0.390625 -0.140625 -1.0625 -0.28125q-1.265625 -0.265625 -1.90625 -0.71875q-0.625 -0.453125 -0.625 -1.171875q0 -0.78125 0.671875 -1.3125q0.6875 -0.53125 2.015625 -0.53125q0.75 0 1.4375 0.25q0.703125 0.25 1.1875 0.578125l-0.53125 0.703125q-0.453125 -0.3125 -1.015625 -0.484375q-0.546875 -0.1875 -1.171875 -0.1875q-0.546875 0 -0.875 0.125q-0.328125 0.125 -0.46875 0.34375q-0.140625 0.203125 -0.140625 0.46875q0 0.40625 0.4375 0.640625q0.453125 0.234375 1.4375 0.4375q1.078125 0.21875 1.65625 0.5q0.59375 0.28125 0.8125 0.640625q0.21875 0.359375 0.21875 0.859375q0 0.53125 -0.34375 0.96875q-0.328125 0.421875 -0.96875 0.6875q-0.640625 0.265625 -1.578125 0.265625zm5.2780914 -0.15625l0 -9.484375l1.09375 0l0 6.421875l0.0625 0l3.484375 -3.421875l1.25 0l-4.796875 4.71875l0 1.765625l-1.09375 0zm5.015625 0l-2.53125 -3.453125l0.671875 -0.703125l3.09375 4.15625l-1.234375 0zm10.868683 0l0 -0.90625l2.453125 0l0 -6.265625l-1.90625 0l0 -0.703125q0.5 -0.0625 0.890625 -0.15625q0.390625 -0.09375 0.703125 -0.203125q0.328125 -0.125 0.59375 -0.265625l0.8125 0l0 7.59375l2.21875 0l0 0.90625l-5.765625 0z" fill-rule="nonzero"/><path fill="#000000" d="m38.309086 291.15924q0.71875 0 1.40625 0.375q0.6875 0.359375 1.0625 1.0625q0.390625 0.6875 0.390625 1.421875q0 1.1875 -0.84375 2.03125q-0.828125 0.84375 -2.015625 0.84375q-1.1875 0 -2.03125 -0.84375q-0.84375 -0.84375 -0.84375 -2.03125q0 -0.75 0.375 -1.4375q0.390625 -0.6875 1.078125 -1.046875q0.703125 -0.375 1.421875 -0.375z" fill-rule="nonzero"/><path fill="#000000" d="m57.765583 297.78424l0 -7.8125l-2.875 0l0 -0.9375l6.875 0l0 0.9375l-2.875 0l0 7.8125l-1.125 0zm7.8405952 0.15625q-0.609375 0 -1.109375 -0.21875q-0.5000038 -0.21875 -0.7968788 -0.625q-0.296875 -0.421875 -0.296875 -0.984375q0 -1.09375 1.0937538 -1.65625q1.09375 -0.578125 3.59375 -0.78125q-0.015625 -0.4375 -0.1875 -0.8125q-0.15625 -0.375 -0.53125 -0.59375q-0.375 -0.21875 -1.0 -0.21875q-0.40625 0 -0.8125 0.125q-0.40625 0.109375 -0.78125 0.296875q-0.359375 0.171875 -0.671875 0.359375l-0.4218788 -0.75q0.3125 -0.21875 0.7656288 -0.4375q0.46875 -0.21875 1.0 -0.359375q0.546875 -0.140625 1.109375 -0.140625q0.890625 0 1.46875 0.34375q0.59375 0.328125 0.875 0.921875q0.28125 0.59375 0.28125 1.40625l0 3.96875l-0.890625 0l-0.09375 -0.875l-0.03125 0q-0.546875 0.421875 -1.21875 0.734375q-0.65625 0.296875 -1.34375 0.296875zm0.296875 -0.875q0.546875 0 1.09375 -0.25q0.546875 -0.25 1.09375 -0.703125l0 -1.71875q-1.375 0.125 -2.171875 0.34375q-0.796875 0.203125 -1.125 0.53125q-0.328125 0.328125 -0.328125 0.75q0 0.359375 0.203125 0.59375q0.203125 0.234375 0.53125 0.34375q0.328125 0.109375 0.703125 0.109375zm8.543716 0.875q-0.9375 0 -1.765625 -0.296875q-0.828125 -0.3125 -1.40625 -0.71875l0.5 -0.71875q0.5625 0.40625 1.234375 0.65625q0.6875 0.234375 1.578125 0.234375q0.828125 0 1.234375 -0.3125q0.40625 -0.3125 0.40625 -0.703125q0 -0.1875 -0.078125 -0.34375q-0.078125 -0.171875 -0.28125 -0.3125q-0.203125 -0.140625 -0.609375 -0.265625q-0.390625 -0.140625 -1.0625 -0.28125q-1.265625 -0.265625 -1.90625 -0.71875q-0.625 -0.453125 -0.625 -1.171875q0 -0.78125 0.671875 -1.3125q0.6875 -0.53125 2.015625 -0.53125q0.75 0 1.4375 0.25q0.703125 0.25 1.1875 0.578125l-0.53125 0.703125q-0.453125 -0.3125 -1.015625 -0.484375q-0.546875 -0.1875 -1.171875 -0.1875q-0.546875 0 -0.875 0.125q-0.328125 0.125 -0.46875 0.34375q-0.140625 0.203125 -0.140625 0.46875q0 0.40625 0.4375 0.640625q0.453125 0.234375 1.4375 0.4375q1.078125 0.21875 1.65625 0.5q0.59375 0.28125 0.8125 0.640625q0.21875 0.359375 0.21875 0.859375q0 0.53125 -0.34375 0.96875q-0.328125 0.421875 -0.96875 0.6875q-0.640625 0.265625 -1.578125 0.265625zm5.2780914 -0.15625l0 -9.484375l1.09375 0l0 6.421875l0.0625 0l3.484375 -3.421875l1.25 0l-4.796875 4.71875l0 1.765625l-1.09375 0zm5.015625 0l-2.53125 -3.453125l0.671875 -0.703125l3.09375 4.15625l-1.234375 0zm10.540558 0l0 -0.65625q1.4375 -1.265625 2.421875 -2.234375q1.0 -0.96875 1.515625 -1.734375q0.53125 -0.765625 0.53125 -1.484375q0 -0.734375 -0.453125 -1.1875q-0.453125 -0.46875 -1.40625 -0.46875q-0.59375 0 -1.109375 0.296875q-0.515625 0.28125 -0.921875 0.71875l-0.625 -0.625q0.578125 -0.578125 1.234375 -0.921875q0.65625 -0.359375 1.5625 -0.359375q0.859375 0 1.46875 0.3125q0.625 0.3125 0.953125 0.875q0.34375 0.546875 0.34375 1.3125q0 0.796875 -0.5 1.609375q-0.484375 0.8125 -1.375 1.71875q-0.875 0.890625 -2.03125 1.96875q0.390625 -0.046875 0.78125 -0.0625q0.40625 -0.03125 0.796875 -0.03125l2.796875 0l0 0.953125l-5.984375 0z" fill-rule="nonzero"/><path fill="#000000" d="m63.674824 313.9405q-0.390625 0 -0.671875 -0.28125q-0.265625 -0.28125 -0.265625 -0.71875q0 -0.453125 0.265625 -0.71875q0.28125 -0.28125 0.671875 -0.28125q0.3906288 0 0.6562538 0.28125q0.265625 0.265625 0.265625 0.71875q0 0.4375 -0.265625 0.71875q-0.265625 0.28125 -0.6562538 0.28125zm2.6406288 0q-0.390625 0 -0.671875 -0.28125q-0.265625 -0.28125 -0.265625 -0.71875q0 -0.453125 0.265625 -0.71875q0.28125 -0.28125 0.671875 -0.28125q0.390625 0 0.65625 0.28125q0.28125 0.265625 0.28125 0.71875q0 0.4375 -0.28125 0.71875q-0.265625 0.28125 -0.65625 0.28125zm2.640625 0q-0.375 0 -0.65625 -0.28125q-0.265625 -0.28125 -0.265625 -0.71875q0 -0.453125 0.265625 -0.71875q0.28125 -0.28125 0.65625 -0.28125q0.390625 0 0.65625 0.28125q0.28125 0.265625 0.28125 0.71875q0 0.4375 -0.28125 0.71875q-0.265625 0.28125 -0.65625 0.28125z" fill-rule="nonzero"/><path fill="#000000" d="m38.309086 323.15924q0.71875 0 1.40625 0.375q0.6875 0.359375 1.0625 1.0625q0.390625 0.6875 0.390625 1.421875q0 1.1875 -0.84375 2.03125q-0.828125 0.84375 -2.015625 0.84375q-1.1875 0 -2.03125 -0.84375q-0.84375 -0.84375 -0.84375 -2.03125q0 -0.75 0.375 -1.4375q0.390625 -0.6875 1.078125 -1.046875q0.703125 -0.375 1.421875 -0.375z" fill-rule="nonzero"/><path fill="#000000" d="m57.765583 329.78424l0 -7.8125l-2.875 0l0 -0.9375l6.875 0l0 0.9375l-2.875 0l0 7.8125l-1.125 0zm7.8405952 0.15625q-0.609375 0 -1.109375 -0.21875q-0.5000038 -0.21875 -0.7968788 -0.625q-0.296875 -0.421875 -0.296875 -0.984375q0 -1.09375 1.0937538 -1.65625q1.09375 -0.578125 3.59375 -0.78125q-0.015625 -0.4375 -0.1875 -0.8125q-0.15625 -0.375 -0.53125 -0.59375q-0.375 -0.21875 -1.0 -0.21875q-0.40625 0 -0.8125 0.125q-0.40625 0.109375 -0.78125 0.296875q-0.359375 0.171875 -0.671875 0.359375l-0.4218788 -0.75q0.3125 -0.21875 0.7656288 -0.4375q0.46875 -0.21875 1.0 -0.359375q0.546875 -0.140625 1.109375 -0.140625q0.890625 0 1.46875 0.34375q0.59375 0.328125 0.875 0.921875q0.28125 0.59375 0.28125 1.40625l0 3.96875l-0.890625 0l-0.09375 -0.875l-0.03125 0q-0.546875 0.421875 -1.21875 0.734375q-0.65625 0.296875 -1.34375 0.296875zm0.296875 -0.875q0.546875 0 1.09375 -0.25q0.546875 -0.25 1.09375 -0.703125l0 -1.71875q-1.375 0.125 -2.171875 0.34375q-0.796875 0.203125 -1.125 0.53125q-0.328125 0.328125 -0.328125 0.75q0 0.359375 0.203125 0.59375q0.203125 0.234375 0.53125 0.34375q0.328125 0.109375 0.703125 0.109375zm8.543716 0.875q-0.9375 0 -1.765625 -0.296875q-0.828125 -0.3125 -1.40625 -0.71875l0.5 -0.71875q0.5625 0.40625 1.234375 0.65625q0.6875 0.234375 1.578125 0.234375q0.828125 0 1.234375 -0.3125q0.40625 -0.3125 0.40625 -0.703125q0 -0.1875 -0.078125 -0.34375q-0.078125 -0.171875 -0.28125 -0.3125q-0.203125 -0.140625 -0.609375 -0.265625q-0.390625 -0.140625 -1.0625 -0.28125q-1.265625 -0.265625 -1.90625 -0.71875q-0.625 -0.453125 -0.625 -1.171875q0 -0.78125 0.671875 -1.3125q0.6875 -0.53125 2.015625 -0.53125q0.75 0 1.4375 0.25q0.703125 0.25 1.1875 0.578125l-0.53125 0.703125q-0.453125 -0.3125 -1.015625 -0.484375q-0.546875 -0.1875 -1.171875 -0.1875q-0.546875 0 -0.875 0.125q-0.328125 0.125 -0.46875 0.34375q-0.140625 0.203125 -0.140625 0.46875q0 0.40625 0.4375 0.640625q0.453125 0.234375 1.4375 0.4375q1.078125 0.21875 1.65625 0.5q0.59375 0.28125 0.8125 0.640625q0.21875 0.359375 0.21875 0.859375q0 0.53125 -0.34375 0.96875q-0.328125 0.421875 -0.96875 0.6875q-0.640625 0.265625 -1.578125 0.265625zm5.2780914 -0.15625l0 -9.484375l1.09375 0l0 6.421875l0.0625 0l3.484375 -3.421875l1.25 0l-4.796875 4.71875l0 1.765625l-1.09375 0zm5.015625 0l-2.53125 -3.453125l0.671875 -0.703125l3.09375 4.15625l-1.234375 0zm10.665558 0l0 -8.75l1.21875 0l2.8125 5.5l0.828125 1.8125l0.03125 0q-0.03125 -0.65625 -0.09375 -1.359375q-0.046875 -0.71875 -0.046875 -1.421875l0 -4.53125l1.0625 0l0 8.75l-1.234375 0l-2.796875 -5.484375l-0.828125 -1.8125l-0.03125 0q0.03125 0.65625 0.078125 1.359375q0.0625 0.6875 0.0625 1.359375l0 4.578125l-1.0625 0z" fill-rule="nonzero"/><path fill="#000000" d="m104.965385 334.89362q-0.625 0 -1.078125 -0.34375q-0.453125 -0.359375 -0.703125 -1.015625q-0.25 -0.65625 -0.25 -1.59375q0 -1.4375 0.546875 -2.171875q0.546875 -0.75 1.484375 -0.75q0.953125 0 1.484375 0.75q0.546875 0.734375 0.546875 2.171875q0 0.9375 -0.25 1.59375q-0.234375 0.65625 -0.6875 1.015625q-0.453125 0.34375 -1.09375 0.34375zm0 -0.59375q0.40625 0 0.703125 -0.25q0.3125 -0.25 0.484375 -0.78125q0.171875 -0.53125 0.171875 -1.328125q0 -0.828125 -0.171875 -1.328125q-0.171875 -0.515625 -0.484375 -0.765625q-0.296875 -0.25 -0.703125 -0.25q-0.390625 0 -0.703125 0.25q-0.296875 0.25 -0.46875 0.765625q-0.171875 0.5 -0.171875 1.328125q0 0.796875 0.171875 1.328125q0.171875 0.53125 0.46875 0.78125q0.3125 0.25 0.703125 0.25zm0 -1.828125q-0.21875 0 -0.390625 -0.15625q-0.15625 -0.171875 -0.15625 -0.4375q0 -0.28125 0.15625 -0.4375q0.171875 -0.15625 0.390625 -0.15625q0.234375 0 0.390625 0.15625q0.171875 0.15625 0.171875 0.4375q0 0.265625 -0.171875 0.4375q-0.15625 0.15625 -0.390625 0.15625z" fill-rule="nonzero"/><path fill="#cfe2f3" d="m150.17455 344.13385c3.9507904 0 7.153534 -3.2027283 7.153534 -7.153534l-7.153534 0c1.9753876 0 3.576767 -1.6013794 3.576767 -3.5767822c0 -1.9753723 -1.6013794 -3.5767517 -3.576767 -3.5767517l7.153534 0l0 -92.99608l0 0c0 -3.9507904 3.2027588 -7.153534 7.153549 -7.153534l104.299225 0c3.9507751 0 7.153534 3.2027435 7.153534 7.153534c0 3.9507904 -3.2027588 7.153549 -7.153534 7.153549l-7.1535645 0l0 92.99606c0 3.9508057 -3.2027283 7.153534 -7.153534 7.153534zm21.460632 -107.30315l0 0c0 3.9507904 -3.2027588 7.153549 -7.153549 7.153549c-1.9754028 0 -3.576767 -1.6013794 -3.576767 -3.576767c0 -1.9754028 1.6013641 -3.5767822 3.576767 -3.5767822z" fill-rule="evenodd"/><path fill="#a5b4c2" d="m171.63518 236.8307l0 0c0 3.9507904 -3.2027588 7.153549 -7.153549 7.153549c-1.9754028 0 -3.576767 -1.6013794 -3.576767 -3.576767c0 -1.9754028 1.6013641 -3.5767822 3.576767 -3.5767822zm-14.307098 100.14961c0 3.9508057 -3.2027435 7.153534 -7.153534 7.153534c-3.9507904 0 -7.153549 -3.2027283 -7.153549 -7.153534c0 -3.9508057 3.2027588 -7.153534 7.153549 -7.153534l0 0c1.9753876 0 3.576767 1.6013794 3.576767 3.5767517c0 1.9754028 -1.6013794 3.5767822 -3.576767 3.5767822z" fill-rule="evenodd"/><path fill="#000000" fill-opacity="0.0" d="m157.32808 329.82678l0 -92.99608l0 0c0 -3.9507904 3.2027588 -7.153534 7.153549 -7.153534l104.299225 0c3.9507751 0 7.153534 3.2027435 7.153534 7.153534c0 3.9507904 -3.2027588 7.153549 -7.153534 7.153549l-7.1535645 0l0 92.99606c0 3.9508057 -3.2027283 7.153534 -7.153534 7.153534l-104.29921 0c-3.9507904 0 -7.153549 -3.2027283 -7.153549 -7.153534c0 -3.9508057 3.2027588 -7.153534 7.153549 -7.153534zm7.153549 -100.14961l0 0c3.9507904 0 7.153549 3.2027435 7.153549 7.153534c0 3.9507904 -3.2027588 7.153549 -7.153549 7.153549c-1.9754028 0 -3.576767 -1.6013794 -3.576767 -3.576767c0 -1.9754028 1.6013641 -3.5767822 3.576767 -3.5767822l7.153549 0m89.99211 7.153549l-97.14566 0m-14.307083 85.84253l0 0c1.9753876 0 3.576767 1.6013794 3.576767 3.5767517c0 1.9754028 -1.6013794 3.5767822 -3.576767 3.5767822l7.153534 0m-7.153534 7.153534c3.9507904 0 7.153534 -3.2027283 7.153534 -7.153534l0 -7.153534" fill-rule="evenodd"/><path stroke="#000000" stroke-width="1.0" stroke-linejoin="round" stroke-linecap="butt" d="m157.32808 329.82678l0 -92.99608l0 0c0 -3.9507904 3.2027588 -7.153534 7.153549 -7.153534l104.299225 0c3.9507751 0 7.153534 3.2027435 7.153534 7.153534c0 3.9507904 -3.2027588 7.153549 -7.153534 7.153549l-7.1535645 0l0 92.99606c0 3.9508057 -3.2027283 7.153534 -7.153534 7.153534l-104.29921 0c-3.9507904 0 -7.153549 -3.2027283 -7.153549 -7.153534c0 -3.9508057 3.2027588 -7.153534 7.153549 -7.153534zm7.153549 -100.14961l0 0c3.9507904 0 7.153549 3.2027435 7.153549 7.153534c0 3.9507904 -3.2027588 7.153549 -7.153549 7.153549c-1.9754028 0 -3.576767 -1.6013794 -3.576767 -3.576767c0 -1.9754028 1.6013641 -3.5767822 3.576767 -3.5767822l7.153549 0m89.99211 7.153549l-97.14566 0m-14.307083 85.84253l0 0c1.9753876 0 3.576767 1.6013794 3.576767 3.5767517c0 1.9754028 -1.6013794 3.5767822 -3.576767 3.5767822l7.153534 0m-7.153534 7.153534c3.9507904 0 7.153534 -3.2027283 7.153534 -7.153534l0 -7.153534" fill-rule="evenodd"/><path fill="#000000" d="m170.29683 265.9405q-0.875 0 -1.734375 -0.3125q-0.859375 -0.328125 -1.5625 -0.9375l1.125 -1.34375q0.5 0.390625 1.09375 0.65625q0.59375 0.25 1.21875 0.25q0.625 0 0.921875 -0.203125q0.296875 -0.21875 0.296875 -0.5625q0 -0.296875 -0.15625 -0.46875q-0.15625 -0.1875 -0.46875 -0.328125q-0.3125 -0.140625 -0.71875 -0.3125l-1.125 -0.484375q-0.46875 -0.1875 -0.90625 -0.5q-0.421875 -0.3125 -0.6875 -0.765625q-0.25 -0.46875 -0.25 -1.109375q0 -0.71875 0.40625 -1.296875q0.40625 -0.578125 1.109375 -0.921875q0.71875 -0.359375 1.671875 -0.359375q0.78125 0 1.53125 0.296875q0.765625 0.28125 1.359375 0.84375l-1.0 1.234375q-0.453125 -0.328125 -0.90625 -0.5q-0.453125 -0.1875 -1.09375 -0.1875q-0.484375 0 -0.796875 0.203125q-0.296875 0.203125 -0.296875 0.578125q0 0.25 0.1875 0.4375q0.1875 0.171875 0.5 0.3125q0.328125 0.125 0.734375 0.28125l1.0625 0.453125q0.578125 0.21875 0.984375 0.53125q0.421875 0.3125 0.640625 0.765625q0.234375 0.453125 0.234375 1.0625q0 0.71875 -0.390625 1.328125q-0.390625 0.609375 -1.15625 0.984375q-0.75 0.375 -1.828125 0.375zm8.606216 0q-1.046875 0 -1.890625 -0.40625q-0.828125 -0.40625 -1.3125 -1.1875q-0.484375 -0.78125 -0.484375 -1.875q0 -1.078125 0.53125 -1.859375q0.53125 -0.78125 1.40625 -1.1875q0.875 -0.40625 1.890625 -0.40625q0.78125 0 1.421875 0.25q0.640625 0.234375 1.0625 0.640625l-0.90625 1.203125q-0.390625 -0.265625 -0.75 -0.390625q-0.34375 -0.125 -0.71875 -0.125q-0.5625 0 -1.0 0.234375q-0.4375 0.21875 -0.6875 0.65625q-0.234375 0.421875 -0.234375 0.984375q0 0.578125 0.234375 1.015625q0.234375 0.421875 0.65625 0.65625q0.421875 0.21875 0.96875 0.21875q0.515625 0 0.9375 -0.1875q0.4375 -0.1875 0.796875 -0.4375l0.796875 1.234375q-0.59375 0.5 -1.328125 0.734375q-0.71875 0.234375 -1.390625 0.234375zm7.8093414 0q-1.015625 0 -1.859375 -0.40625q-0.828125 -0.40625 -1.3125 -1.1875q-0.484375 -0.78125 -0.484375 -1.875q0 -1.078125 0.484375 -1.84375q0.5 -0.78125 1.28125 -1.1875q0.796875 -0.421875 1.671875 -0.421875q1.03125 0 1.71875 0.421875q0.6875 0.40625 1.046875 1.125q0.359375 0.71875 0.359375 1.625q0 0.265625 -0.046875 0.515625q-0.03125 0.234375 -0.046875 0.359375l-5.015625 0l0 -1.3125l3.6875 0l-0.296875 0.359375q0 -0.796875 -0.34375 -1.203125q-0.34375 -0.40625 -1.0 -0.40625q-0.46875 0 -0.84375 0.21875q-0.359375 0.21875 -0.5625 0.65625q-0.1875 0.4375 -0.1875 1.09375q0 0.6875 0.234375 1.125q0.25 0.421875 0.703125 0.640625q0.453125 0.21875 1.09375 0.21875q0.453125 0 0.859375 -0.125q0.40625 -0.125 0.84375 -0.34375l0.65625 1.1875q-0.578125 0.359375 -1.28125 0.5625q-0.6875 0.203125 -1.359375 0.203125zm4.5593414 -0.15625l0 -6.609375l1.609375 0l0.140625 0.875l0.0625 0q0.421875 -0.421875 0.96875 -0.71875q0.5625 -0.3125 1.296875 -0.3125q1.125 0 1.640625 0.71875q0.53125 0.71875 0.53125 1.96875l0 4.078125l-1.96875 0l0 -3.828125q0 -0.65625 -0.21875 -0.96875q-0.21875 -0.3125 -0.75 -0.3125q-0.40625 0 -0.703125 0.1875q-0.296875 0.171875 -0.640625 0.515625l0 4.40625l-1.96875 0zm10.028091 0.15625q-0.671875 0 -1.15625 -0.265625q-0.484375 -0.265625 -0.75 -0.71875q-0.265625 -0.453125 -0.265625 -1.015625q0 -1.109375 1.0 -1.6875q1.015625 -0.59375 3.359375 -0.71875q-0.046875 -0.3125 -0.203125 -0.515625q-0.15625 -0.21875 -0.453125 -0.328125q-0.296875 -0.125 -0.75 -0.125q-0.328125 0 -0.65625 0.078125q-0.3125 0.078125 -0.65625 0.21875q-0.328125 0.140625 -0.703125 0.328125l-0.703125 -1.28125q0.453125 -0.265625 0.953125 -0.46875q0.5 -0.203125 1.03125 -0.3125q0.546875 -0.109375 1.109375 -0.109375q0.9375 0 1.59375 0.328125q0.671875 0.3125 1.03125 0.984375q0.359375 0.65625 0.359375 1.671875l0 3.78125l-1.59375 0l-0.140625 -0.75l-0.0625 0q-0.484375 0.375 -1.09375 0.640625q-0.59375 0.265625 -1.25 0.265625zm0.625 -1.515625q0.4375 0 0.828125 -0.171875q0.390625 -0.1875 0.734375 -0.453125l0 -1.09375q-0.96875 0.046875 -1.515625 0.203125q-0.53125 0.140625 -0.75 0.375q-0.21875 0.21875 -0.21875 0.515625q0 0.203125 0.109375 0.34375q0.125 0.140625 0.328125 0.21875q0.203125 0.0625 0.484375 0.0625zm5.9343414 1.359375l0 -6.609375l1.59375 0l0.171875 1.4375l0.03125 0q0.5 -0.8125 1.1875 -1.203125q0.703125 -0.390625 1.5 -0.390625q0.4375 0 0.703125 0.0625q0.28125 0.0625 0.5625 0.203125l-0.390625 1.640625q-0.3125 -0.09375 -0.5625 -0.140625q-0.234375 -0.046875 -0.609375 -0.046875q-0.609375 0 -1.203125 0.359375q-0.59375 0.359375 -1.03125 1.25l0 3.4375l-1.953125 0zm10.153091 0l0 -5.078125l-2.65625 0l0 -1.53125l4.625 0l0 6.609375l-1.96875 0zm0.890625 -7.65625q-0.5625 0 -0.9375 -0.3125q-0.375 -0.328125 -0.375 -0.875q0 -0.546875 0.375 -0.875q0.375 -0.34373474 0.9375 -0.34373474q0.578125 0 0.9375 0.34373474q0.359375 0.328125 0.359375 0.875q0 0.546875 -0.359375 0.875q-0.359375 0.3125 -0.9375 0.3125zm7.4030914 7.8125q-0.875 0 -1.640625 -0.40625q-0.765625 -0.40625 -1.25 -1.1875q-0.484375 -0.78125 -0.484375 -1.875q0 -1.078125 0.484375 -1.859375q0.484375 -0.78125 1.25 -1.1875q0.765625 -0.40625 1.640625 -0.40625q0.859375 0 1.625 0.40625q0.78125 0.40625 1.265625 1.1875q0.484375 0.78125 0.484375 1.859375q0 1.09375 -0.484375 1.875q-0.484375 0.78125 -1.265625 1.1875q-0.765625 0.40625 -1.625 0.40625zm0 -1.578125q0.453125 0 0.75 -0.21875q0.296875 -0.234375 0.453125 -0.65625q0.15625 -0.4375 0.15625 -1.015625q0 -0.5625 -0.15625 -0.984375q-0.15625 -0.4375 -0.453125 -0.65625q-0.296875 -0.234375 -0.75 -0.234375q-0.453125 0 -0.75 0.234375q-0.296875 0.21875 -0.453125 0.65625q-0.15625 0.421875 -0.15625 0.984375q0 0.578125 0.15625 1.015625q0.15625 0.421875 0.453125 0.65625q0.296875 0.21875 0.75 0.21875zm13.040558 1.421875l0 -1.59375l2.28125 0l0 -4.890625l-1.875 0l0 -1.203125q0.578125 -0.09375 0.984375 -0.1875q0.421875 -0.109375 0.75 -0.25q0.34375 -0.140625 0.671875 -0.34375l1.4375 0l0 6.875l1.90625 0l0 1.59375l-6.15625 0z" fill-rule="nonzero"/><path fill="#000000" d="m174.30908 275.15924q0.71875 0 1.40625 0.375q0.6875 0.359375 1.0625 1.0625q0.390625 0.6875 0.390625 1.421875q0 1.1875 -0.84375 2.03125q-0.828125 0.84375 -2.015625 0.84375q-1.1875 0 -2.03125 -0.84375q-0.84375 -0.84375 -0.84375 -2.03125q0 -0.75 0.375 -1.4375q0.390625 -0.6875 1.078125 -1.046875q0.703125 -0.375 1.421875 -0.375z" fill-rule="nonzero"/><path fill="#000000" d="m193.76558 281.78424l0 -7.8125l-2.875 0l0 -0.9375l6.875 0l0 0.9375l-2.875 0l0 7.8125l-1.125 0zm7.8405914 0.15625q-0.609375 0 -1.109375 -0.21875q-0.5 -0.21875 -0.796875 -0.625q-0.296875 -0.421875 -0.296875 -0.984375q0 -1.09375 1.09375 -1.65625q1.09375 -0.578125 3.59375 -0.78125q-0.015625 -0.4375 -0.1875 -0.8125q-0.15625 -0.375 -0.53125 -0.59375q-0.375 -0.21875 -1.0 -0.21875q-0.40625 0 -0.8125 0.125q-0.40625 0.109375 -0.78125 0.296875q-0.359375 0.171875 -0.671875 0.359375l-0.421875 -0.75q0.3125 -0.21875 0.765625 -0.4375q0.46875 -0.21875 1.0 -0.359375q0.546875 -0.140625 1.109375 -0.140625q0.890625 0 1.46875 0.34375q0.59375 0.328125 0.875 0.921875q0.28125 0.59375 0.28125 1.40625l0 3.96875l-0.890625 0l-0.09375 -0.875l-0.03125 0q-0.546875 0.421875 -1.21875 0.734375q-0.65625 0.296875 -1.34375 0.296875zm0.296875 -0.875q0.546875 0 1.09375 -0.25q0.546875 -0.25 1.09375 -0.703125l0 -1.71875q-1.375 0.125 -2.171875 0.34375q-0.796875 0.203125 -1.125 0.53125q-0.328125 0.328125 -0.328125 0.75q0 0.359375 0.203125 0.59375q0.203125 0.234375 0.53125 0.34375q0.328125 0.109375 0.703125 0.109375zm8.543716 0.875q-0.9375 0 -1.765625 -0.296875q-0.828125 -0.3125 -1.40625 -0.71875l0.5 -0.71875q0.5625 0.40625 1.234375 0.65625q0.6875 0.234375 1.578125 0.234375q0.828125 0 1.234375 -0.3125q0.40625 -0.3125 0.40625 -0.703125q0 -0.1875 -0.078125 -0.34375q-0.078125 -0.171875 -0.28125 -0.3125q-0.203125 -0.140625 -0.609375 -0.265625q-0.390625 -0.140625 -1.0625 -0.28125q-1.265625 -0.265625 -1.90625 -0.71875q-0.625 -0.453125 -0.625 -1.171875q0 -0.78125 0.671875 -1.3125q0.6875 -0.53125 2.015625 -0.53125q0.75 0 1.4375 0.25q0.703125 0.25 1.1875 0.578125l-0.53125 0.703125q-0.453125 -0.3125 -1.015625 -0.484375q-0.546875 -0.1875 -1.171875 -0.1875q-0.546875 0 -0.875 0.125q-0.328125 0.125 -0.46875 0.34375q-0.140625 0.203125 -0.140625 0.46875q0 0.40625 0.4375 0.640625q0.453125 0.234375 1.4375 0.4375q1.078125 0.21875 1.65625 0.5q0.59375 0.28125 0.8125 0.640625q0.21875 0.359375 0.21875 0.859375q0 0.53125 -0.34375 0.96875q-0.328125 0.421875 -0.96875 0.6875q-0.640625 0.265625 -1.578125 0.265625zm5.2780914 -0.15625l0 -9.484375l1.09375 0l0 6.421875l0.0625 0l3.484375 -3.421875l1.25 0l-4.796875 4.71875l0 1.765625l-1.09375 0zm5.015625 0l-2.53125 -3.453125l0.671875 -0.703125l3.09375 4.15625l-1.234375 0zm10.868683 0l0 -0.90625l2.453125 0l0 -6.265625l-1.90625 0l0 -0.703125q0.5 -0.0625 0.890625 -0.15625q0.390625 -0.09375 0.703125 -0.203125q0.328125 -0.125 0.59375 -0.265625l0.8125 0l0 7.59375l2.21875 0l0 0.90625l-5.765625 0z" fill-rule="nonzero"/><path fill="#000000" d="m174.30908 291.15924q0.71875 0 1.40625 0.375q0.6875 0.359375 1.0625 1.0625q0.390625 0.6875 0.390625 1.421875q0 1.1875 -0.84375 2.03125q-0.828125 0.84375 -2.015625 0.84375q-1.1875 0 -2.03125 -0.84375q-0.84375 -0.84375 -0.84375 -2.03125q0 -0.75 0.375 -1.4375q0.390625 -0.6875 1.078125 -1.046875q0.703125 -0.375 1.421875 -0.375z" fill-rule="nonzero"/><path fill="#000000" d="m193.76558 297.78424l0 -7.8125l-2.875 0l0 -0.9375l6.875 0l0 0.9375l-2.875 0l0 7.8125l-1.125 0zm7.8405914 0.15625q-0.609375 0 -1.109375 -0.21875q-0.5 -0.21875 -0.796875 -0.625q-0.296875 -0.421875 -0.296875 -0.984375q0 -1.09375 1.09375 -1.65625q1.09375 -0.578125 3.59375 -0.78125q-0.015625 -0.4375 -0.1875 -0.8125q-0.15625 -0.375 -0.53125 -0.59375q-0.375 -0.21875 -1.0 -0.21875q-0.40625 0 -0.8125 0.125q-0.40625 0.109375 -0.78125 0.296875q-0.359375 0.171875 -0.671875 0.359375l-0.421875 -0.75q0.3125 -0.21875 0.765625 -0.4375q0.46875 -0.21875 1.0 -0.359375q0.546875 -0.140625 1.109375 -0.140625q0.890625 0 1.46875 0.34375q0.59375 0.328125 0.875 0.921875q0.28125 0.59375 0.28125 1.40625l0 3.96875l-0.890625 0l-0.09375 -0.875l-0.03125 0q-0.546875 0.421875 -1.21875 0.734375q-0.65625 0.296875 -1.34375 0.296875zm0.296875 -0.875q0.546875 0 1.09375 -0.25q0.546875 -0.25 1.09375 -0.703125l0 -1.71875q-1.375 0.125 -2.171875 0.34375q-0.796875 0.203125 -1.125 0.53125q-0.328125 0.328125 -0.328125 0.75q0 0.359375 0.203125 0.59375q0.203125 0.234375 0.53125 0.34375q0.328125 0.109375 0.703125 0.109375zm8.543716 0.875q-0.9375 0 -1.765625 -0.296875q-0.828125 -0.3125 -1.40625 -0.71875l0.5 -0.71875q0.5625 0.40625 1.234375 0.65625q0.6875 0.234375 1.578125 0.234375q0.828125 0 1.234375 -0.3125q0.40625 -0.3125 0.40625 -0.703125q0 -0.1875 -0.078125 -0.34375q-0.078125 -0.171875 -0.28125 -0.3125q-0.203125 -0.140625 -0.609375 -0.265625q-0.390625 -0.140625 -1.0625 -0.28125q-1.265625 -0.265625 -1.90625 -0.71875q-0.625 -0.453125 -0.625 -1.171875q0 -0.78125 0.671875 -1.3125q0.6875 -0.53125 2.015625 -0.53125q0.75 0 1.4375 0.25q0.703125 0.25 1.1875 0.578125l-0.53125 0.703125q-0.453125 -0.3125 -1.015625 -0.484375q-0.546875 -0.1875 -1.171875 -0.1875q-0.546875 0 -0.875 0.125q-0.328125 0.125 -0.46875 0.34375q-0.140625 0.203125 -0.140625 0.46875q0 0.40625 0.4375 0.640625q0.453125 0.234375 1.4375 0.4375q1.078125 0.21875 1.65625 0.5q0.59375 0.28125 0.8125 0.640625q0.21875 0.359375 0.21875 0.859375q0 0.53125 -0.34375 0.96875q-0.328125 0.421875 -0.96875 0.6875q-0.640625 0.265625 -1.578125 0.265625zm5.2780914 -0.15625l0 -9.484375l1.09375 0l0 6.421875l0.0625 0l3.484375 -3.421875l1.25 0l-4.796875 4.71875l0 1.765625l-1.09375 0zm5.015625 0l-2.53125 -3.453125l0.671875 -0.703125l3.09375 4.15625l-1.234375 0zm10.540558 0l0 -0.65625q1.4375 -1.265625 2.421875 -2.234375q1.0 -0.96875 1.515625 -1.734375q0.53125 -0.765625 0.53125 -1.484375q0 -0.734375 -0.453125 -1.1875q-0.453125 -0.46875 -1.40625 -0.46875q-0.59375 0 -1.109375 0.296875q-0.515625 0.28125 -0.921875 0.71875l-0.625 -0.625q0.578125 -0.578125 1.234375 -0.921875q0.65625 -0.359375 1.5625 -0.359375q0.859375 0 1.46875 0.3125q0.625 0.3125 0.953125 0.875q0.34375 0.546875 0.34375 1.3125q0 0.796875 -0.5 1.609375q-0.484375 0.8125 -1.375 1.71875q-0.875 0.890625 -2.03125 1.96875q0.390625 -0.046875 0.78125 -0.0625q0.40625 -0.03125 0.796875 -0.03125l2.796875 0l0 0.953125l-5.984375 0z" fill-rule="nonzero"/><path fill="#000000" d="m199.67482 313.9405q-0.390625 0 -0.671875 -0.28125q-0.265625 -0.28125 -0.265625 -0.71875q0 -0.453125 0.265625 -0.71875q0.28125 -0.28125 0.671875 -0.28125q0.390625 0 0.65625 0.28125q0.265625 0.265625 0.265625 0.71875q0 0.4375 -0.265625 0.71875q-0.265625 0.28125 -0.65625 0.28125zm2.640625 0q-0.390625 0 -0.671875 -0.28125q-0.265625 -0.28125 -0.265625 -0.71875q0 -0.453125 0.265625 -0.71875q0.28125 -0.28125 0.671875 -0.28125q0.390625 0 0.65625 0.28125q0.28125 0.265625 0.28125 0.71875q0 0.4375 -0.28125 0.71875q-0.265625 0.28125 -0.65625 0.28125zm2.640625 0q-0.375 0 -0.65625 -0.28125q-0.265625 -0.28125 -0.265625 -0.71875q0 -0.453125 0.265625 -0.71875q0.28125 -0.28125 0.65625 -0.28125q0.390625 0 0.65625 0.28125q0.28125 0.265625 0.28125 0.71875q0 0.4375 -0.28125 0.71875q-0.265625 0.28125 -0.65625 0.28125z" fill-rule="nonzero"/><path fill="#000000" d="m174.30908 323.15924q0.71875 0 1.40625 0.375q0.6875 0.359375 1.0625 1.0625q0.390625 0.6875 0.390625 1.421875q0 1.1875 -0.84375 2.03125q-0.828125 0.84375 -2.015625 0.84375q-1.1875 0 -2.03125 -0.84375q-0.84375 -0.84375 -0.84375 -2.03125q0 -0.75 0.375 -1.4375q0.390625 -0.6875 1.078125 -1.046875q0.703125 -0.375 1.421875 -0.375z" fill-rule="nonzero"/><path fill="#000000" d="m193.76558 329.78424l0 -7.8125l-2.875 0l0 -0.9375l6.875 0l0 0.9375l-2.875 0l0 7.8125l-1.125 0zm7.8405914 0.15625q-0.609375 0 -1.109375 -0.21875q-0.5 -0.21875 -0.796875 -0.625q-0.296875 -0.421875 -0.296875 -0.984375q0 -1.09375 1.09375 -1.65625q1.09375 -0.578125 3.59375 -0.78125q-0.015625 -0.4375 -0.1875 -0.8125q-0.15625 -0.375 -0.53125 -0.59375q-0.375 -0.21875 -1.0 -0.21875q-0.40625 0 -0.8125 0.125q-0.40625 0.109375 -0.78125 0.296875q-0.359375 0.171875 -0.671875 0.359375l-0.421875 -0.75q0.3125 -0.21875 0.765625 -0.4375q0.46875 -0.21875 1.0 -0.359375q0.546875 -0.140625 1.109375 -0.140625q0.890625 0 1.46875 0.34375q0.59375 0.328125 0.875 0.921875q0.28125 0.59375 0.28125 1.40625l0 3.96875l-0.890625 0l-0.09375 -0.875l-0.03125 0q-0.546875 0.421875 -1.21875 0.734375q-0.65625 0.296875 -1.34375 0.296875zm0.296875 -0.875q0.546875 0 1.09375 -0.25q0.546875 -0.25 1.09375 -0.703125l0 -1.71875q-1.375 0.125 -2.171875 0.34375q-0.796875 0.203125 -1.125 0.53125q-0.328125 0.328125 -0.328125 0.75q0 0.359375 0.203125 0.59375q0.203125 0.234375 0.53125 0.34375q0.328125 0.109375 0.703125 0.109375zm8.543716 0.875q-0.9375 0 -1.765625 -0.296875q-0.828125 -0.3125 -1.40625 -0.71875l0.5 -0.71875q0.5625 0.40625 1.234375 0.65625q0.6875 0.234375 1.578125 0.234375q0.828125 0 1.234375 -0.3125q0.40625 -0.3125 0.40625 -0.703125q0 -0.1875 -0.078125 -0.34375q-0.078125 -0.171875 -0.28125 -0.3125q-0.203125 -0.140625 -0.609375 -0.265625q-0.390625 -0.140625 -1.0625 -0.28125q-1.265625 -0.265625 -1.90625 -0.71875q-0.625 -0.453125 -0.625 -1.171875q0 -0.78125 0.671875 -1.3125q0.6875 -0.53125 2.015625 -0.53125q0.75 0 1.4375 0.25q0.703125 0.25 1.1875 0.578125l-0.53125 0.703125q-0.453125 -0.3125 -1.015625 -0.484375q-0.546875 -0.1875 -1.171875 -0.1875q-0.546875 0 -0.875 0.125q-0.328125 0.125 -0.46875 0.34375q-0.140625 0.203125 -0.140625 0.46875q0 0.40625 0.4375 0.640625q0.453125 0.234375 1.4375 0.4375q1.078125 0.21875 1.65625 0.5q0.59375 0.28125 0.8125 0.640625q0.21875 0.359375 0.21875 0.859375q0 0.53125 -0.34375 0.96875q-0.328125 0.421875 -0.96875 0.6875q-0.640625 0.265625 -1.578125 0.265625zm5.2780914 -0.15625l0 -9.484375l1.09375 0l0 6.421875l0.0625 0l3.484375 -3.421875l1.25 0l-4.796875 4.71875l0 1.765625l-1.09375 0zm5.015625 0l-2.53125 -3.453125l0.671875 -0.703125l3.09375 4.15625l-1.234375 0zm10.665558 0l0 -8.75l1.21875 0l2.8125 5.5l0.828125 1.8125l0.03125 0q-0.03125 -0.65625 -0.09375 -1.359375q-0.046875 -0.71875 -0.046875 -1.421875l0 -4.53125l1.0625 0l0 8.75l-1.234375 0l-2.796875 -5.484375l-0.828125 -1.8125l-0.03125 0q0.03125 0.65625 0.078125 1.359375q0.0625 0.6875 0.0625 1.359375l0 4.578125l-1.0625 0z" fill-rule="nonzero"/><path fill="#000000" d="m239.1685 334.78424l0 -0.609375l1.640625 0l0 -4.171875l-1.28125 0l0 -0.46875q0.34375 -0.046875 0.59375 -0.09375q0.265625 -0.0625 0.46875 -0.140625q0.21875 -0.078125 0.40625 -0.171875l0.53125 0l0 5.046875l1.484375 0l0 0.609375l-3.84375 0z" fill-rule="nonzero"/><path fill="#cfe2f3" d="m302.17453 344.13385c3.9508057 0 7.1535645 -3.2027283 7.1535645 -7.153534l-7.1535645 0c1.9754028 0 3.5767822 -1.6013794 3.5767822 -3.5767822c0 -1.9753723 -1.6013794 -3.5767517 -3.5767822 -3.5767517l7.1535645 0l0 -92.99608l0 0c0 -3.9507904 3.2027283 -7.153534 7.153534 -7.153534l104.299225 0c3.9507751 0 7.153534 3.2027435 7.153534 7.153534c0 3.9507904 -3.2027588 7.153549 -7.153534 7.153549l-7.1535645 0l0 92.99606c0 3.9508057 -3.2027283 7.153534 -7.153534 7.153534zm21.460632 -107.30315l0 0c0 3.9507904 -3.2027283 7.153549 -7.153534 7.153549c-1.9754028 0 -3.5767822 -1.6013794 -3.5767822 -3.576767c0 -1.9754028 1.6013794 -3.5767822 3.5767822 -3.5767822z" fill-rule="evenodd"/><path fill="#a5b4c2" d="m323.63516 236.8307l0 0c0 3.9507904 -3.2027283 7.153549 -7.153534 7.153549c-1.9754028 0 -3.5767822 -1.6013794 -3.5767822 -3.576767c0 -1.9754028 1.6013794 -3.5767822 3.5767822 -3.5767822zm-14.307068 100.14961c0 3.9508057 -3.2027588 7.153534 -7.1535645 7.153534c-3.9507751 0 -7.153534 -3.2027283 -7.153534 -7.153534c0 -3.9508057 3.2027588 -7.153534 7.153534 -7.153534l0 0c1.9754028 0 3.5767822 1.6013794 3.5767822 3.5767517c0 1.9754028 -1.6013794 3.5767822 -3.5767822 3.5767822z" fill-rule="evenodd"/><path fill="#000000" fill-opacity="0.0" d="m309.3281 329.82678l0 -92.99608l0 0c0 -3.9507904 3.2027283 -7.153534 7.153534 -7.153534l104.299225 0c3.9507751 0 7.153534 3.2027435 7.153534 7.153534c0 3.9507904 -3.2027588 7.153549 -7.153534 7.153549l-7.1535645 0l0 92.99606c0 3.9508057 -3.2027283 7.153534 -7.153534 7.153534l-104.299225 0c-3.9507751 0 -7.153534 -3.2027283 -7.153534 -7.153534c0 -3.9508057 3.2027588 -7.153534 7.153534 -7.153534zm7.153534 -100.14961l0 0c3.9508057 0 7.153534 3.2027435 7.153534 7.153534c0 3.9507904 -3.2027283 7.153549 -7.153534 7.153549c-1.9754028 0 -3.5767822 -1.6013794 -3.5767822 -3.576767c0 -1.9754028 1.6013794 -3.5767822 3.5767822 -3.5767822l7.153534 0m89.99213 7.153549l-97.14566 0m-14.307098 85.84253l0 0c1.9754028 0 3.5767822 1.6013794 3.5767822 3.5767517c0 1.9754028 -1.6013794 3.5767822 -3.5767822 3.5767822l7.1535645 0m-7.1535645 7.153534c3.9508057 0 7.1535645 -3.2027283 7.1535645 -7.153534l0 -7.153534" fill-rule="evenodd"/><path stroke="#000000" stroke-width="1.0" stroke-linejoin="round" stroke-linecap="butt" d="m309.3281 329.82678l0 -92.99608l0 0c0 -3.9507904 3.2027283 -7.153534 7.153534 -7.153534l104.299225 0c3.9507751 0 7.153534 3.2027435 7.153534 7.153534c0 3.9507904 -3.2027588 7.153549 -7.153534 7.153549l-7.1535645 0l0 92.99606c0 3.9508057 -3.2027283 7.153534 -7.153534 7.153534l-104.299225 0c-3.9507751 0 -7.153534 -3.2027283 -7.153534 -7.153534c0 -3.9508057 3.2027588 -7.153534 7.153534 -7.153534zm7.153534 -100.14961l0 0c3.9508057 0 7.153534 3.2027435 7.153534 7.153534c0 3.9507904 -3.2027283 7.153549 -7.153534 7.153549c-1.9754028 0 -3.5767822 -1.6013794 -3.5767822 -3.576767c0 -1.9754028 1.6013794 -3.5767822 3.5767822 -3.5767822l7.153534 0m89.99213 7.153549l-97.14566 0m-14.307098 85.84253l0 0c1.9754028 0 3.5767822 1.6013794 3.5767822 3.5767517c0 1.9754028 -1.6013794 3.5767822 -3.5767822 3.5767822l7.1535645 0m-7.1535645 7.153534c3.9508057 0 7.1535645 -3.2027283 7.1535645 -7.153534l0 -7.153534" fill-rule="evenodd"/><path fill="#000000" d="m322.29684 265.9405q-0.875 0 -1.734375 -0.3125q-0.859375 -0.328125 -1.5625 -0.9375l1.125 -1.34375q0.5 0.390625 1.09375 0.65625q0.59375 0.25 1.21875 0.25q0.625 0 0.921875 -0.203125q0.296875 -0.21875 0.296875 -0.5625q0 -0.296875 -0.15625 -0.46875q-0.15625 -0.1875 -0.46875 -0.328125q-0.3125 -0.140625 -0.71875 -0.3125l-1.125 -0.484375q-0.46875 -0.1875 -0.90625 -0.5q-0.421875 -0.3125 -0.6875 -0.765625q-0.25 -0.46875 -0.25 -1.109375q0 -0.71875 0.40625 -1.296875q0.40625 -0.578125 1.109375 -0.921875q0.71875 -0.359375 1.671875 -0.359375q0.78125 0 1.53125 0.296875q0.765625 0.28125 1.359375 0.84375l-1.0 1.234375q-0.453125 -0.328125 -0.90625 -0.5q-0.453125 -0.1875 -1.09375 -0.1875q-0.484375 0 -0.796875 0.203125q-0.296875 0.203125 -0.296875 0.578125q0 0.25 0.1875 0.4375q0.1875 0.171875 0.5 0.3125q0.328125 0.125 0.734375 0.28125l1.0625 0.453125q0.578125 0.21875 0.984375 0.53125q0.421875 0.3125 0.640625 0.765625q0.234375 0.453125 0.234375 1.0625q0 0.71875 -0.390625 1.328125q-0.390625 0.609375 -1.15625 0.984375q-0.75 0.375 -1.828125 0.375zm8.606201 0q-1.046875 0 -1.890625 -0.40625q-0.828125 -0.40625 -1.3125 -1.1875q-0.484375 -0.78125 -0.484375 -1.875q0 -1.078125 0.53125 -1.859375q0.53125 -0.78125 1.40625 -1.1875q0.875 -0.40625 1.890625 -0.40625q0.78125 0 1.421875 0.25q0.640625 0.234375 1.0625 0.640625l-0.90625 1.203125q-0.390625 -0.265625 -0.75 -0.390625q-0.34375 -0.125 -0.71875 -0.125q-0.5625 0 -1.0 0.234375q-0.4375 0.21875 -0.6875 0.65625q-0.234375 0.421875 -0.234375 0.984375q0 0.578125 0.234375 1.015625q0.234375 0.421875 0.65625 0.65625q0.421875 0.21875 0.96875 0.21875q0.515625 0 0.9375 -0.1875q0.4375 -0.1875 0.796875 -0.4375l0.796875 1.234375q-0.59375 0.5 -1.328125 0.734375q-0.71875 0.234375 -1.390625 0.234375zm7.8093567 0q-1.015625 0 -1.859375 -0.40625q-0.828125 -0.40625 -1.3125 -1.1875q-0.484375 -0.78125 -0.484375 -1.875q0 -1.078125 0.484375 -1.84375q0.5 -0.78125 1.28125 -1.1875q0.796875 -0.421875 1.671875 -0.421875q1.03125 0 1.71875 0.421875q0.6875 0.40625 1.046875 1.125q0.359375 0.71875 0.359375 1.625q0 0.265625 -0.046875 0.515625q-0.03125 0.234375 -0.046875 0.359375l-5.015625 0l0 -1.3125l3.6875 0l-0.296875 0.359375q0 -0.796875 -0.34375 -1.203125q-0.34375 -0.40625 -1.0 -0.40625q-0.46875 0 -0.84375 0.21875q-0.359375 0.21875 -0.5625 0.65625q-0.1875 0.4375 -0.1875 1.09375q0 0.6875 0.234375 1.125q0.25 0.421875 0.703125 0.640625q0.453125 0.21875 1.09375 0.21875q0.453125 0 0.859375 -0.125q0.40625 -0.125 0.84375 -0.34375l0.65625 1.1875q-0.578125 0.359375 -1.28125 0.5625q-0.6875 0.203125 -1.359375 0.203125zm4.559326 -0.15625l0 -6.609375l1.609375 0l0.140625 0.875l0.0625 0q0.421875 -0.421875 0.96875 -0.71875q0.5625 -0.3125 1.296875 -0.3125q1.125 0 1.640625 0.71875q0.53125 0.71875 0.53125 1.96875l0 4.078125l-1.96875 0l0 -3.828125q0 -0.65625 -0.21875 -0.96875q-0.21875 -0.3125 -0.75 -0.3125q-0.40625 0 -0.703125 0.1875q-0.296875 0.171875 -0.640625 0.515625l0 4.40625l-1.96875 0zm10.028107 0.15625q-0.671875 0 -1.15625 -0.265625q-0.484375 -0.265625 -0.75 -0.71875q-0.265625 -0.453125 -0.265625 -1.015625q0 -1.109375 1.0 -1.6875q1.015625 -0.59375 3.359375 -0.71875q-0.046875 -0.3125 -0.203125 -0.515625q-0.15625 -0.21875 -0.453125 -0.328125q-0.296875 -0.125 -0.75 -0.125q-0.328125 0 -0.65625 0.078125q-0.3125 0.078125 -0.65625 0.21875q-0.328125 0.140625 -0.703125 0.328125l-0.703125 -1.28125q0.453125 -0.265625 0.953125 -0.46875q0.5 -0.203125 1.03125 -0.3125q0.546875 -0.109375 1.109375 -0.109375q0.9375 0 1.59375 0.328125q0.671875 0.3125 1.03125 0.984375q0.359375 0.65625 0.359375 1.671875l0 3.78125l-1.59375 0l-0.140625 -0.75l-0.0625 0q-0.484375 0.375 -1.09375 0.640625q-0.59375 0.265625 -1.25 0.265625zm0.625 -1.515625q0.4375 0 0.828125 -0.171875q0.390625 -0.1875 0.734375 -0.453125l0 -1.09375q-0.96875 0.046875 -1.515625 0.203125q-0.53125 0.140625 -0.75 0.375q-0.21875 0.21875 -0.21875 0.515625q0 0.203125 0.109375 0.34375q0.125 0.140625 0.328125 0.21875q0.203125 0.0625 0.484375 0.0625zm5.934326 1.359375l0 -6.609375l1.59375 0l0.171875 1.4375l0.03125 0q0.5 -0.8125 1.1875 -1.203125q0.703125 -0.390625 1.5 -0.390625q0.4375 0 0.703125 0.0625q0.28125 0.0625 0.5625 0.203125l-0.390625 1.640625q-0.3125 -0.09375 -0.5625 -0.140625q-0.234375 -0.046875 -0.609375 -0.046875q-0.609375 0 -1.203125 0.359375q-0.59375 0.359375 -1.03125 1.25l0 3.4375l-1.953125 0zm10.153107 0l0 -5.078125l-2.65625 0l0 -1.53125l4.625 0l0 6.609375l-1.96875 0zm0.890625 -7.65625q-0.5625 0 -0.9375 -0.3125q-0.375 -0.328125 -0.375 -0.875q0 -0.546875 0.375 -0.875q0.375 -0.34373474 0.9375 -0.34373474q0.578125 0 0.9375 0.34373474q0.359375 0.328125 0.359375 0.875q0 0.546875 -0.359375 0.875q-0.359375 0.3125 -0.9375 0.3125zm7.403076 7.8125q-0.875 0 -1.640625 -0.40625q-0.765625 -0.40625 -1.25 -1.1875q-0.484375 -0.78125 -0.484375 -1.875q0 -1.078125 0.484375 -1.859375q0.484375 -0.78125 1.25 -1.1875q0.765625 -0.40625 1.640625 -0.40625q0.859375 0 1.625 0.40625q0.78125 0.40625 1.265625 1.1875q0.484375 0.78125 0.484375 1.859375q0 1.09375 -0.484375 1.875q-0.484375 0.78125 -1.265625 1.1875q-0.765625 0.40625 -1.625 0.40625zm0 -1.578125q0.453125 0 0.75 -0.21875q0.296875 -0.234375 0.453125 -0.65625q0.15625 -0.4375 0.15625 -1.015625q0 -0.5625 -0.15625 -0.984375q-0.15625 -0.4375 -0.453125 -0.65625q-0.296875 -0.234375 -0.75 -0.234375q-0.453125 0 -0.75 0.234375q-0.296875 0.21875 -0.453125 0.65625q-0.15625 0.421875 -0.15625 0.984375q0 0.578125 0.15625 1.015625q0.15625 0.421875 0.453125 0.65625q0.296875 0.21875 0.75 0.21875zm12.868683 1.421875l0 -8.6875l2.015625 0l1.828125 4.3125l0.75 1.921875l0.046875 0q-0.0625 -0.6875 -0.171875 -1.53125q-0.109375 -0.859375 -0.109375 -1.625l0 -3.078125l1.890625 0l0 8.6875l-2.015625 0l-1.828125 -4.328125l-0.75 -1.890625l-0.046875 0q0.0625 0.703125 0.171875 1.53125q0.109375 0.828125 0.109375 1.609375l0 3.078125l-1.890625 0z" fill-rule="nonzero"/><path fill="#000000" d="m400.93713 270.89362q-0.578125 0 -1.15625 -0.203125q-0.5625 -0.21875 -1.046875 -0.640625l0.765625 -0.890625q0.328125 0.265625 0.71875 0.4375q0.390625 0.171875 0.8125 0.171875q0.421875 0 0.609375 -0.140625q0.203125 -0.140625 0.203125 -0.375q0 -0.203125 -0.109375 -0.3125q-0.09375 -0.125 -0.3125 -0.21875q-0.203125 -0.09375 -0.46875 -0.203125l-0.75 -0.328125q-0.3125 -0.125 -0.609375 -0.328125q-0.28125 -0.21875 -0.453125 -0.515625q-0.171875 -0.3125 -0.171875 -0.734375q0 -0.484375 0.265625 -0.859375q0.28125 -0.390625 0.75 -0.625q0.484375 -0.234375 1.109375 -0.234375q0.515625 0 1.015625 0.203125q0.515625 0.1875 0.90625 0.5625l-0.65625 0.828125q-0.3125 -0.234375 -0.609375 -0.34375q-0.296875 -0.125 -0.734375 -0.125q-0.3125 0 -0.515625 0.140625q-0.203125 0.125 -0.203125 0.375q0 0.171875 0.125 0.296875q0.125 0.109375 0.328125 0.203125q0.21875 0.078125 0.5 0.1875l0.6875 0.3125q0.390625 0.140625 0.671875 0.34375q0.28125 0.203125 0.421875 0.515625q0.15625 0.296875 0.15625 0.703125q0 0.484375 -0.265625 0.890625q-0.265625 0.40625 -0.765625 0.65625q-0.5 0.25 -1.21875 0.25z" fill-rule="nonzero"/><path fill="#000000" d="m326.30908 275.15924q0.71875 0 1.40625 0.375q0.6875 0.359375 1.0625 1.0625q0.390625 0.6875 0.390625 1.421875q0 1.1875 -0.84375 2.03125q-0.828125 0.84375 -2.015625 0.84375q-1.1875 0 -2.03125 -0.84375q-0.84375 -0.84375 -0.84375 -2.03125q0 -0.75 0.375 -1.4375q0.390625 -0.6875 1.078125 -1.046875q0.703125 -0.375 1.421875 -0.375z" fill-rule="nonzero"/><path fill="#000000" d="m345.7656 281.78424l0 -7.8125l-2.875 0l0 -0.9375l6.875 0l0 0.9375l-2.875 0l0 7.8125l-1.125 0zm7.840576 0.15625q-0.609375 0 -1.109375 -0.21875q-0.5 -0.21875 -0.796875 -0.625q-0.296875 -0.421875 -0.296875 -0.984375q0 -1.09375 1.09375 -1.65625q1.09375 -0.578125 3.59375 -0.78125q-0.015625 -0.4375 -0.1875 -0.8125q-0.15625 -0.375 -0.53125 -0.59375q-0.375 -0.21875 -1.0 -0.21875q-0.40625 0 -0.8125 0.125q-0.40625 0.109375 -0.78125 0.296875q-0.359375 0.171875 -0.671875 0.359375l-0.421875 -0.75q0.3125 -0.21875 0.765625 -0.4375q0.46875 -0.21875 1.0 -0.359375q0.546875 -0.140625 1.109375 -0.140625q0.890625 0 1.46875 0.34375q0.59375 0.328125 0.875 0.921875q0.28125 0.59375 0.28125 1.40625l0 3.96875l-0.890625 0l-0.09375 -0.875l-0.03125 0q-0.546875 0.421875 -1.21875 0.734375q-0.65625 0.296875 -1.34375 0.296875zm0.296875 -0.875q0.546875 0 1.09375 -0.25q0.546875 -0.25 1.09375 -0.703125l0 -1.71875q-1.375 0.125 -2.171875 0.34375q-0.796875 0.203125 -1.125 0.53125q-0.328125 0.328125 -0.328125 0.75q0 0.359375 0.203125 0.59375q0.203125 0.234375 0.53125 0.34375q0.328125 0.109375 0.703125 0.109375zm8.543732 0.875q-0.9375 0 -1.765625 -0.296875q-0.828125 -0.3125 -1.40625 -0.71875l0.5 -0.71875q0.5625 0.40625 1.234375 0.65625q0.6875 0.234375 1.578125 0.234375q0.828125 0 1.234375 -0.3125q0.40625 -0.3125 0.40625 -0.703125q0 -0.1875 -0.078125 -0.34375q-0.078125 -0.171875 -0.28125 -0.3125q-0.203125 -0.140625 -0.609375 -0.265625q-0.390625 -0.140625 -1.0625 -0.28125q-1.265625 -0.265625 -1.90625 -0.71875q-0.625 -0.453125 -0.625 -1.171875q0 -0.78125 0.671875 -1.3125q0.6875 -0.53125 2.015625 -0.53125q0.75 0 1.4375 0.25q0.703125 0.25 1.1875 0.578125l-0.53125 0.703125q-0.453125 -0.3125 -1.015625 -0.484375q-0.546875 -0.1875 -1.171875 -0.1875q-0.546875 0 -0.875 0.125q-0.328125 0.125 -0.46875 0.34375q-0.140625 0.203125 -0.140625 0.46875q0 0.40625 0.4375 0.640625q0.453125 0.234375 1.4375 0.4375q1.078125 0.21875 1.65625 0.5q0.59375 0.28125 0.8125 0.640625q0.21875 0.359375 0.21875 0.859375q0 0.53125 -0.34375 0.96875q-0.328125 0.421875 -0.96875 0.6875q-0.640625 0.265625 -1.578125 0.265625zm5.278076 -0.15625l0 -9.484375l1.09375 0l0 6.421875l0.0625 0l3.484375 -3.421875l1.25 0l-4.796875 4.71875l0 1.765625l-1.09375 0zm5.015625 0l-2.53125 -3.453125l0.671875 -0.703125l3.09375 4.15625l-1.234375 0zm10.868683 0l0 -0.90625l2.453125 0l0 -6.265625l-1.90625 0l0 -0.703125q0.5 -0.0625 0.890625 -0.15625q0.390625 -0.09375 0.703125 -0.203125q0.328125 -0.125 0.59375 -0.265625l0.8125 0l0 7.59375l2.21875 0l0 0.90625l-5.765625 0z" fill-rule="nonzero"/><path fill="#000000" d="m326.30908 291.15924q0.71875 0 1.40625 0.375q0.6875 0.359375 1.0625 1.0625q0.390625 0.6875 0.390625 1.421875q0 1.1875 -0.84375 2.03125q-0.828125 0.84375 -2.015625 0.84375q-1.1875 0 -2.03125 -0.84375q-0.84375 -0.84375 -0.84375 -2.03125q0 -0.75 0.375 -1.4375q0.390625 -0.6875 1.078125 -1.046875q0.703125 -0.375 1.421875 -0.375z" fill-rule="nonzero"/><path fill="#000000" d="m345.7656 297.78424l0 -7.8125l-2.875 0l0 -0.9375l6.875 0l0 0.9375l-2.875 0l0 7.8125l-1.125 0zm7.840576 0.15625q-0.609375 0 -1.109375 -0.21875q-0.5 -0.21875 -0.796875 -0.625q-0.296875 -0.421875 -0.296875 -0.984375q0 -1.09375 1.09375 -1.65625q1.09375 -0.578125 3.59375 -0.78125q-0.015625 -0.4375 -0.1875 -0.8125q-0.15625 -0.375 -0.53125 -0.59375q-0.375 -0.21875 -1.0 -0.21875q-0.40625 0 -0.8125 0.125q-0.40625 0.109375 -0.78125 0.296875q-0.359375 0.171875 -0.671875 0.359375l-0.421875 -0.75q0.3125 -0.21875 0.765625 -0.4375q0.46875 -0.21875 1.0 -0.359375q0.546875 -0.140625 1.109375 -0.140625q0.890625 0 1.46875 0.34375q0.59375 0.328125 0.875 0.921875q0.28125 0.59375 0.28125 1.40625l0 3.96875l-0.890625 0l-0.09375 -0.875l-0.03125 0q-0.546875 0.421875 -1.21875 0.734375q-0.65625 0.296875 -1.34375 0.296875zm0.296875 -0.875q0.546875 0 1.09375 -0.25q0.546875 -0.25 1.09375 -0.703125l0 -1.71875q-1.375 0.125 -2.171875 0.34375q-0.796875 0.203125 -1.125 0.53125q-0.328125 0.328125 -0.328125 0.75q0 0.359375 0.203125 0.59375q0.203125 0.234375 0.53125 0.34375q0.328125 0.109375 0.703125 0.109375zm8.543732 0.875q-0.9375 0 -1.765625 -0.296875q-0.828125 -0.3125 -1.40625 -0.71875l0.5 -0.71875q0.5625 0.40625 1.234375 0.65625q0.6875 0.234375 1.578125 0.234375q0.828125 0 1.234375 -0.3125q0.40625 -0.3125 0.40625 -0.703125q0 -0.1875 -0.078125 -0.34375q-0.078125 -0.171875 -0.28125 -0.3125q-0.203125 -0.140625 -0.609375 -0.265625q-0.390625 -0.140625 -1.0625 -0.28125q-1.265625 -0.265625 -1.90625 -0.71875q-0.625 -0.453125 -0.625 -1.171875q0 -0.78125 0.671875 -1.3125q0.6875 -0.53125 2.015625 -0.53125q0.75 0 1.4375 0.25q0.703125 0.25 1.1875 0.578125l-0.53125 0.703125q-0.453125 -0.3125 -1.015625 -0.484375q-0.546875 -0.1875 -1.171875 -0.1875q-0.546875 0 -0.875 0.125q-0.328125 0.125 -0.46875 0.34375q-0.140625 0.203125 -0.140625 0.46875q0 0.40625 0.4375 0.640625q0.453125 0.234375 1.4375 0.4375q1.078125 0.21875 1.65625 0.5q0.59375 0.28125 0.8125 0.640625q0.21875 0.359375 0.21875 0.859375q0 0.53125 -0.34375 0.96875q-0.328125 0.421875 -0.96875 0.6875q-0.640625 0.265625 -1.578125 0.265625zm5.278076 -0.15625l0 -9.484375l1.09375 0l0 6.421875l0.0625 0l3.484375 -3.421875l1.25 0l-4.796875 4.71875l0 1.765625l-1.09375 0zm5.015625 0l-2.53125 -3.453125l0.671875 -0.703125l3.09375 4.15625l-1.234375 0zm10.540558 0l0 -0.65625q1.4375 -1.265625 2.421875 -2.234375q1.0 -0.96875 1.515625 -1.734375q0.53125 -0.765625 0.53125 -1.484375q0 -0.734375 -0.453125 -1.1875q-0.453125 -0.46875 -1.40625 -0.46875q-0.59375 0 -1.109375 0.296875q-0.515625 0.28125 -0.921875 0.71875l-0.625 -0.625q0.578125 -0.578125 1.234375 -0.921875q0.65625 -0.359375 1.5625 -0.359375q0.859375 0 1.46875 0.3125q0.625 0.3125 0.953125 0.875q0.34375 0.546875 0.34375 1.3125q0 0.796875 -0.5 1.609375q-0.484375 0.8125 -1.375 1.71875q-0.875 0.890625 -2.03125 1.96875q0.390625 -0.046875 0.78125 -0.0625q0.40625 -0.03125 0.796875 -0.03125l2.796875 0l0 0.953125l-5.984375 0z" fill-rule="nonzero"/><path fill="#000000" d="m351.67484 313.9405q-0.390625 0 -0.671875 -0.28125q-0.265625 -0.28125 -0.265625 -0.71875q0 -0.453125 0.265625 -0.71875q0.28125 -0.28125 0.671875 -0.28125q0.390625 0 0.65625 0.28125q0.265625 0.265625 0.265625 0.71875q0 0.4375 -0.265625 0.71875q-0.265625 0.28125 -0.65625 0.28125zm2.640625 0q-0.390625 0 -0.671875 -0.28125q-0.265625 -0.28125 -0.265625 -0.71875q0 -0.453125 0.265625 -0.71875q0.28125 -0.28125 0.671875 -0.28125q0.390625 0 0.65625 0.28125q0.28125 0.265625 0.28125 0.71875q0 0.4375 -0.28125 0.71875q-0.265625 0.28125 -0.65625 0.28125zm2.640625 0q-0.375 0 -0.65625 -0.28125q-0.265625 -0.28125 -0.265625 -0.71875q0 -0.453125 0.265625 -0.71875q0.28125 -0.28125 0.65625 -0.28125q0.390625 0 0.65625 0.28125q0.28125 0.265625 0.28125 0.71875q0 0.4375 -0.28125 0.71875q-0.265625 0.28125 -0.65625 0.28125z" fill-rule="nonzero"/><path fill="#000000" d="m326.30908 323.15924q0.71875 0 1.40625 0.375q0.6875 0.359375 1.0625 1.0625q0.390625 0.6875 0.390625 1.421875q0 1.1875 -0.84375 2.03125q-0.828125 0.84375 -2.015625 0.84375q-1.1875 0 -2.03125 -0.84375q-0.84375 -0.84375 -0.84375 -2.03125q0 -0.75 0.375 -1.4375q0.390625 -0.6875 1.078125 -1.046875q0.703125 -0.375 1.421875 -0.375z" fill-rule="nonzero"/><path fill="#000000" d="m345.7656 329.78424l0 -7.8125l-2.875 0l0 -0.9375l6.875 0l0 0.9375l-2.875 0l0 7.8125l-1.125 0zm7.840576 0.15625q-0.609375 0 -1.109375 -0.21875q-0.5 -0.21875 -0.796875 -0.625q-0.296875 -0.421875 -0.296875 -0.984375q0 -1.09375 1.09375 -1.65625q1.09375 -0.578125 3.59375 -0.78125q-0.015625 -0.4375 -0.1875 -0.8125q-0.15625 -0.375 -0.53125 -0.59375q-0.375 -0.21875 -1.0 -0.21875q-0.40625 0 -0.8125 0.125q-0.40625 0.109375 -0.78125 0.296875q-0.359375 0.171875 -0.671875 0.359375l-0.421875 -0.75q0.3125 -0.21875 0.765625 -0.4375q0.46875 -0.21875 1.0 -0.359375q0.546875 -0.140625 1.109375 -0.140625q0.890625 0 1.46875 0.34375q0.59375 0.328125 0.875 0.921875q0.28125 0.59375 0.28125 1.40625l0 3.96875l-0.890625 0l-0.09375 -0.875l-0.03125 0q-0.546875 0.421875 -1.21875 0.734375q-0.65625 0.296875 -1.34375 0.296875zm0.296875 -0.875q0.546875 0 1.09375 -0.25q0.546875 -0.25 1.09375 -0.703125l0 -1.71875q-1.375 0.125 -2.171875 0.34375q-0.796875 0.203125 -1.125 0.53125q-0.328125 0.328125 -0.328125 0.75q0 0.359375 0.203125 0.59375q0.203125 0.234375 0.53125 0.34375q0.328125 0.109375 0.703125 0.109375zm8.543732 0.875q-0.9375 0 -1.765625 -0.296875q-0.828125 -0.3125 -1.40625 -0.71875l0.5 -0.71875q0.5625 0.40625 1.234375 0.65625q0.6875 0.234375 1.578125 0.234375q0.828125 0 1.234375 -0.3125q0.40625 -0.3125 0.40625 -0.703125q0 -0.1875 -0.078125 -0.34375q-0.078125 -0.171875 -0.28125 -0.3125q-0.203125 -0.140625 -0.609375 -0.265625q-0.390625 -0.140625 -1.0625 -0.28125q-1.265625 -0.265625 -1.90625 -0.71875q-0.625 -0.453125 -0.625 -1.171875q0 -0.78125 0.671875 -1.3125q0.6875 -0.53125 2.015625 -0.53125q0.75 0 1.4375 0.25q0.703125 0.25 1.1875 0.578125l-0.53125 0.703125q-0.453125 -0.3125 -1.015625 -0.484375q-0.546875 -0.1875 -1.171875 -0.1875q-0.546875 0 -0.875 0.125q-0.328125 0.125 -0.46875 0.34375q-0.140625 0.203125 -0.140625 0.46875q0 0.40625 0.4375 0.640625q0.453125 0.234375 1.4375 0.4375q1.078125 0.21875 1.65625 0.5q0.59375 0.28125 0.8125 0.640625q0.21875 0.359375 0.21875 0.859375q0 0.53125 -0.34375 0.96875q-0.328125 0.421875 -0.96875 0.6875q-0.640625 0.265625 -1.578125 0.265625zm5.278076 -0.15625l0 -9.484375l1.09375 0l0 6.421875l0.0625 0l3.484375 -3.421875l1.25 0l-4.796875 4.71875l0 1.765625l-1.09375 0zm5.015625 0l-2.53125 -3.453125l0.671875 -0.703125l3.09375 4.15625l-1.234375 0zm10.665558 0l0 -8.75l1.21875 0l2.8125 5.5l0.828125 1.8125l0.03125 0q-0.03125 -0.65625 -0.09375 -1.359375q-0.046875 -0.71875 -0.046875 -1.421875l0 -4.53125l1.0625 0l0 8.75l-1.234375 0l-2.796875 -5.484375l-0.828125 -1.8125l-0.03125 0q0.03125 0.65625 0.078125 1.359375q0.0625 0.6875 0.0625 1.359375l0 4.578125l-1.0625 0z" fill-rule="nonzero"/><path fill="#000000" d="m393.01227 334.89362q-0.640625 0 -1.171875 -0.234375q-0.53125 -0.234375 -0.9375 -0.625l0.4375 -0.515625q0.328125 0.328125 0.765625 0.53125q0.453125 0.1875 0.953125 0.1875q0.59375 0 0.921875 -0.25q0.34375 -0.265625 0.34375 -0.671875q0 -0.3125 -0.140625 -0.484375q-0.140625 -0.1875 -0.375 -0.3125q-0.234375 -0.125 -0.53125 -0.25l-0.84375 -0.375q-0.28125 -0.125 -0.578125 -0.296875q-0.28125 -0.1875 -0.484375 -0.46875q-0.1875 -0.296875 -0.1875 -0.734375q0 -0.4375 0.234375 -0.78125q0.25 -0.359375 0.6875 -0.546875q0.4375 -0.203125 0.984375 -0.203125q0.546875 0 1.0 0.203125q0.46875 0.1875 0.796875 0.515625l-0.390625 0.46875q-0.296875 -0.25 -0.640625 -0.390625q-0.34375 -0.15625 -0.796875 -0.15625q-0.5 0 -0.8125 0.234375q-0.3125 0.21875 -0.3125 0.625q0 0.265625 0.15625 0.453125q0.15625 0.171875 0.390625 0.296875q0.234375 0.109375 0.484375 0.203125l0.828125 0.359375q0.359375 0.140625 0.640625 0.34375q0.296875 0.203125 0.46875 0.5q0.171875 0.28125 0.171875 0.71875q0 0.453125 -0.25 0.828125q-0.25 0.375 -0.71875 0.609375q-0.453125 0.21875 -1.09375 0.21875z" fill-rule="nonzero"/><path fill="#000000" fill-opacity="0.0" d="m269.17584 284.75592l36.0 -0.94488525" fill-rule="evenodd"/><path stroke="#000000" stroke-width="3.0" stroke-linejoin="round" stroke-linecap="butt" stroke-dasharray="3.0,9.0" d="m269.17584 284.75592l36.0 -0.94488525" fill-rule="evenodd"/><path fill="#000000" fill-opacity="0.0" d="m213.79002 179.22047l-140.31496 50.456696" fill-rule="evenodd"/><path stroke="#000000" stroke-width="1.0" stroke-linejoin="round" stroke-linecap="butt" d="m213.79002 179.22047l-134.66891 48.42639" fill-rule="evenodd"/><path fill="#000000" stroke="#000000" stroke-width="1.0" stroke-linecap="butt" d="m78.562195 226.09258l-3.711464 3.0899048l4.8293 0.018676758z" fill-rule="evenodd"/><path fill="#000000" fill-opacity="0.0" d="m213.79002 179.22047l-4.3149567 50.456696" fill-rule="evenodd"/><path stroke="#000000" stroke-width="1.0" stroke-linejoin="round" stroke-linecap="butt" d="m213.79002 179.22047l-3.8037262 44.478516" fill-rule="evenodd"/><path fill="#000000" stroke="#000000" stroke-width="1.0" stroke-linecap="butt" d="m208.34058 223.55824l1.2590485 4.6623383l2.0324097 -4.3808594z" fill-rule="evenodd"/><path fill="#000000" fill-opacity="0.0" d="m213.79002 179.22047l147.68504 50.456696" fill-rule="evenodd"/><path stroke="#000000" stroke-width="1.0" stroke-linejoin="round" stroke-linecap="butt" d="m213.79002 179.22047l142.00725 48.516876" fill-rule="evenodd"/><path fill="#000000" stroke="#000000" stroke-width="1.0" stroke-linecap="butt" d="m355.26328 229.30038l4.8283997 -0.09585571l-3.760376 -3.0302124z" fill-rule="evenodd"/></g></svg>